<?xml version="1.0" encoding="UTF-8" standalone="no"?>
<!-- Created with Inkscape (http://www.inkscape.org/) -->

<svg
   xmlns:dc="http://purl.org/dc/elements/1.1/"
   xmlns:cc="http://creativecommons.org/ns#"
   xmlns:rdf="http://www.w3.org/1999/02/22-rdf-syntax-ns#"
   xmlns:svg="http://www.w3.org/2000/svg"
   xmlns="http://www.w3.org/2000/svg"
   xmlns:sodipodi="http://sodipodi.sourceforge.net/DTD/sodipodi-0.dtd"
   xmlns:inkscape="http://www.inkscape.org/namespaces/inkscape"
   width="297mm"
   height="210mm"
   viewBox="0 0 297 210"
   version="1.1"
   id="svg837"
   inkscape:version="0.92.3 (2405546, 2018-03-11)"
   sodipodi:docname="logoREH_3.svg">
  <defs
     id="defs831">
    <inkscape:perspective
       sodipodi:type="inkscape:persp3d"
       inkscape:vp_x="0 : 148.49999 : 1"
       inkscape:vp_y="0 : 999.99995 : 0"
       inkscape:vp_z="210.00001 : 148.49999 : 1"
       inkscape:persp3d-origin="105.00001 : 98.999995 : 1"
       id="perspective1438" />
    <inkscape:path-effect
       effect="spiro"
       id="path-effect1412"
       is_visible="true" />
    <inkscape:path-effect
       effect="spiro"
       id="path-effect1408"
       is_visible="true" />
    <inkscape:path-effect
       effect="spiro"
       id="path-effect1404"
       is_visible="true" />
    <inkscape:path-effect
       effect="spiro"
       id="path-effect1400"
       is_visible="true" />
    <inkscape:path-effect
       effect="spiro"
       id="path-effect1396"
       is_visible="true" />
    <inkscape:path-effect
       effect="spiro"
       id="path-effect1392"
       is_visible="true" />
    <inkscape:path-effect
       effect="spiro"
       id="path-effect1388"
       is_visible="true" />
    <inkscape:path-effect
       effect="spiro"
       id="path-effect1384"
       is_visible="true" />
  </defs>
  <sodipodi:namedview
     id="base"
     pagecolor="#ffffff"
     bordercolor="#666666"
     borderopacity="1.0"
     inkscape:pageopacity="0.0"
     inkscape:pageshadow="2"
     inkscape:zoom="0.35"
     inkscape:cx="350"
     inkscape:cy="560"
     inkscape:document-units="mm"
     inkscape:current-layer="layer1"
     showgrid="false"
     inkscape:window-width="1280"
     inkscape:window-height="738"
     inkscape:window-x="-8"
     inkscape:window-y="-8"
     inkscape:window-maximized="1" />
  <metadata
     id="metadata834">
    <rdf:RDF>
      <cc:Work
         rdf:about="">
        <dc:format>image/svg+xml</dc:format>
        <dc:type
           rdf:resource="http://purl.org/dc/dcmitype/StillImage" />
        <dc:title></dc:title>
      </cc:Work>
    </rdf:RDF>
  </metadata>
  <g
     inkscape:label="Capa 1"
     inkscape:groupmode="layer"
     id="layer1"
     transform="translate(0,-87)">
    <path
       style="fill:#008000;stroke-width:0.47904024"
       id="path1512"
       d="m 228.13948,145.06894 c -7.65735,1.42797 -15.27185,2.86732 -23.07183,3.81397 -5.84709,0.91449 -11.67198,1.01364 -17.55865,0.36883 -4.07086,-0.44592 -6.12668,-0.58459 -9.71978,-2.0521 -1.20414,-0.4918 -2.2324,-1.20202 -3.34859,-1.80303 -3.84969,-2.10069 -7.88911,-5.86715 -5.29565,-9.6704 0.47083,-0.69047 1.2094,-1.25305 1.8141,-1.87957 7.60526,-4.84674 15.21502,-7.17596 24.74221,-4.84758 1.69103,0.41328 3.25287,1.0884 4.87931,1.6326 1.74925,0.75839 3.63827,1.35336 5.24773,2.27518 5.44102,3.11637 11.50936,10.62321 14.13643,15.38929 0.77221,1.40095 1.21882,2.89428 1.82827,4.34142 1.31343,5.1573 3.31616,10.48848 2.80126,15.80458 -0.22671,2.34037 -1.64241,7.4233 -2.18749,9.54093 -5.97003,16.8554 -14.12911,33.19436 -21.73169,49.64762 -3.88763,8.49009 -8.08788,16.89251 -12.13806,25.33734 -1.01734,2.12121 -1.91002,4.27942 -3.04189,6.36638 -1.864,3.43691 -4.12663,6.73932 -6.15971,10.11968 -2.78447,4.78554 -7.22643,12.11301 -15.52382,12.04373 -0.53826,-0.42956 -1.98727,-1.53973 -2.31222,-2.01718 -1.91779,-2.81783 -1.59529,-8.62729 -1.82382,-11.7112 1.29978,-6.27046 2.52197,-12.64219 4.94096,-18.73522 3.11316,-7.8415 7.61179,-15.38794 12.04941,-22.8231 7.6322,-13.52256 17.33308,-26.28758 26.50866,-39.21846 3.77509,-5.70675 8.01968,-11.12632 12.70022,-16.4159 0.82653,-0.93406 1.51583,-1.9447 2.45036,-2.81717 1.0948,-1.02212 2.40798,-1.89514 3.61194,-2.8427 6.02276,-4.90804 12.9569,-9.02578 20.43959,-12.53936 3.28474,-1.18243 12.583,-6.13453 17.63658,-4.87949 0.51006,0.12667 0.89938,0.44697 1.34907,0.67044 2.21211,1.01911 1.87879,2.18237 2.24654,3.88453 0.12029,0.55677 0.47674,1.07443 0.58644,1.63249 0.0251,0.12746 0.27485,4.10871 0.28192,4.21942 -0.0187,2.58686 0.30284,5.2849 -0.76782,7.7973 -0.54791,1.28574 -2.34881,3.91959 -3.09488,5.06136 -4.88646,6.30471 -9.47719,12.74271 -14.89227,18.80179 -4.30414,4.7326 -9.02116,9.18788 -14.60172,13.08573 -4.55349,2.79929 -9.62034,4.99307 -14.87001,6.95791 -3.0875,1.15559 -8.01607,2.0079 -11.37487,2.68612 -4.3144,0.75232 -8.65471,1.78544 -13.05558,2.22805 -1.04927,0.10561 -2.11997,-0.005 -3.17348,0.0716 -6.35074,0.46226 -0.96287,0.51762 -6.40268,0.31757 -4.47708,-1.23862 -4.97091,-2.87295 -5.71525,-6.08212 2.8709,-4.0549 9.85655,-4.39976 15.18932,-4.67359 5.23546,-0.25652 7.44052,0.38584 10.23826,3.76312 0.14555,0.57086 0.18715,1.16306 0.4363,1.71257 0.25459,0.56164 0.82746,1.0212 1.05991,1.58841 1.05724,2.5798 1.055,6.67954 1.50556,9.45223 -0.32553,3.88848 0.42203,7.90138 2.1156,11.58821 0.92804,2.02029 2.19228,3.94083 3.28001,5.91397 3.30946,6.25251 9.44804,10.13349 16.54708,13.80343 3.01725,1.13808 6.30572,2.44714 9.6787,2.8742 1.10576,0.13997 2.24036,0.0573 3.36035,0.0899 0.8664,0.0252 1.74001,0.17478 2.59877,0.0834 0.91313,-0.0971 1.75741,-0.42662 2.63611,-0.63994 0.78462,-0.32201 3.20034,-1.17757 2.3539,-0.96606 -1.33411,0.33335 -2.43079,1.40324 -3.83149,1.33527 -0.89244,-0.0434 1.34088,-0.91097 1.92671,-1.42771 1.78234,-1.57208 2.75959,-3.47954 3.76766,-5.37603 0.61043,-3.52889 1.80692,-7.03435 2.33892,-10.57014 0.13622,-0.90496 0.0956,-1.8204 0.14347,-2.7306 0.18323,-0.95324 0.36657,-1.9065 0.54983,-2.85974 -0.33712,-3.00453 -0.30404,-6.05445 -3.37897,-8.29048 -1.11047,-0.8075 -2.48623,-1.37091 -3.70252,-2.0837 -2.07284,-0.63107 -4.14987,-1.1158 -6.40066,-0.82493 -0.57566,0.0744 -2.15811,0.64071 -1.676,0.38887 5.4634,-2.85381 4.00386,-1.74574 2.54453,-0.30119 -0.10189,1.20729 -1.06107,2.28307 -1.21036,3.47699 -0.17369,1.38868 0.42195,3.73179 1.71134,4.79102 0.46431,0.38145 1.12248,0.59113 1.68373,0.88671 0.60639,0.22059 1.21277,0.44119 1.81917,0.66178 0,0 -5.14884,2.56236 -5.14884,2.56236 v 0 c -0.64498,-0.24176 -1.28997,-0.48356 -1.93496,-0.72534 -0.55957,-0.35042 -1.21649,-0.62586 -1.67874,-1.05129 -2.78219,-2.56034 -1.84598,-5.80487 -0.86758,-8.73043 2.81773,-2.64777 7.32738,-5.32788 12.08519,-4.82703 1.45602,0.15327 2.78148,0.74826 4.06785,1.22943 2.82688,1.34713 5.86991,3.29776 6.65646,5.91314 0.47728,1.58706 -0.0926,3.30436 0.87748,4.83917 -0.3727,5.51261 -1.65681,10.92367 -3.10732,16.32232 -3.32417,6.39377 -5.54793,8.12038 -14.63571,11.3208 -0.85462,0.15311 -1.68949,0.40036 -2.56384,0.45953 -5.52474,0.37385 -11.06075,-1.57245 -15.93124,-3.24543 -5.85225,-2.71011 -7.79734,-4.54482 -11.98454,-8.56907 -0.88789,-0.85331 -2.00271,-1.58198 -2.72298,-2.52313 -0.74012,-0.96705 -1.06897,-2.0866 -1.60346,-3.12988 -0.70563,-0.95131 -1.55087,-1.84951 -2.11692,-2.8539 -0.56186,-0.99697 -0.82686,-2.07717 -1.24657,-3.11428 -1.50363,-3.71524 -2.63027,-7.58052 -2.5972,-11.49054 -0.69487,-4.22401 -0.74525,-8.59884 -2.86043,-12.58441 -2.42432,-3.56556 -4.83635,-3.45525 -9.78445,-3.33048 -2.61146,0.0556 -1.96554,-0.0323 -4.59494,0.33116 -0.68301,0.0944 -2.46557,0.74096 -2.03918,0.3221 0.91824,-0.90205 2.47452,-1.28329 3.69237,-1.94614 0.56203,-0.30591 -3.37362,1.54262 -1.57262,1.02881 -0.77725,2.73344 1.92988,4.71513 5.21357,5.3725 3.70105,0.44466 5.83744,-0.10435 9.52337,-0.49536 4.18552,-0.44402 8.31921,-1.00655 12.38926,-1.91094 3.47466,-0.83115 4.87369,-1.14738 8.2702,-2.0295 1.11352,-0.28921 2.15839,-0.9854 3.32836,-0.89462 0.78685,0.0611 -2.68668,1.27161 -1.98054,0.99919 2.9964,-1.15591 3.46212,-1.60456 5.96581,-3.15773 1.12805,-0.69636 2.33055,-1.32754 3.38415,-2.08903 0.83462,-0.60326 1.48926,-1.33756 2.25873,-1.9895 3.38457,-2.86759 6.73027,-5.74082 9.44607,-9.02123 5.58888,-6.0643 10.05593,-12.43287 14.99766,-18.79116 1.87373,-2.83618 3.53174,-5.53234 4.11774,-8.70279 0.12463,-0.67445 0.36825,-1.35141 0.30004,-2.03056 -0.0626,-0.6217 -0.45627,-1.19727 -0.68439,-1.79591 0.13291,-1.96417 0.40567,-4.03087 -0.31193,-5.95833 -0.17122,-0.45998 -0.5518,-0.86306 -0.73244,-1.32096 -0.17038,-0.43174 -0.0109,-0.94499 -0.31393,-1.33144 -0.2781,-0.35363 -0.87154,-0.4867 -1.30731,-0.73005 -2.56957,-1.04354 -4.66719,-0.5717 -7.34149,0.14884 -0.83783,0.22574 -1.82262,1.16787 -2.49233,0.72153 -0.6102,-0.40669 1.33847,-0.69636 2.00767,-1.04452 -7.6516,3.39321 -14.63538,7.55465 -20.72423,12.47789 -7.88426,6.50021 -13.67962,14.04798 -18.82993,21.96911 -9.32116,12.91265 -18.82996,25.79225 -26.73039,39.25755 -3.14767,5.24568 -6.0796,9.85923 -8.68308,15.28466 -4.02656,8.39098 -6.87184,17.21618 -8.32483,26.0775 0.13703,3.04335 -0.54886,10.03598 2.99753,12.36065 0.34994,0.2294 0.82079,0.32087 1.23118,0.4813 1.96031,-0.002 4.0648,-0.15137 -2.75971,1.84262 -0.59771,0.17463 0.86196,-0.72351 1.27994,-1.09402 0.72999,-0.64705 1.55436,-1.24195 2.16364,-1.95835 1.62999,-1.91654 2.15854,-4.31423 4.19642,-6.06173 5.05872,-7.42875 1.41233,-1.60942 5.69642,-9.92722 3.30113,-6.40919 4.33497,-7.56879 7.62275,-14.34355 1.34594,-2.77343 2.51682,-5.59472 3.77524,-8.39208 1.4866,-3.06288 2.97324,-6.12576 4.45985,-9.18861 5.81055,-12.63791 2.78492,-6.3319 9.08076,-18.91689 4.638,-9.999 8.56319,-20.23296 12.13738,-30.47763 0.60718,-1.77337 1.36714,-3.5202 1.82149,-5.32013 1.71168,-6.78101 -0.29491,-13.23118 -2.18587,-19.83463 -0.58856,-1.43905 -1.0087,-2.92489 -1.76565,-4.31712 -0.78427,-1.44247 -1.87002,-2.77806 -2.83957,-4.15307 -2.94086,-4.1707 -5.95825,-8.16571 -11.04165,-11.0543 -1.56406,-0.88875 -3.35412,-1.51747 -5.03117,-2.27621 -3.16822,-0.98414 -6.12531,-2.13285 -9.60425,-2.35539 -1.60851,-0.10292 -3.23576,0.0469 -4.83375,0.22086 -1.32469,0.14425 -2.59871,0.97207 -3.89892,0.73038 -0.7411,-0.13775 2.4338,-1.3833 1.74649,-1.13047 -0.92708,0.34103 -1.65552,0.93434 -2.48328,1.40151 -1.24802,1.11862 -2.70915,2.06767 -2.99266,3.63771 -0.29506,1.63407 1.51024,4.54426 2.85952,5.68318 0.80155,0.67658 1.89483,1.11092 2.84223,1.66638 2.21461,1.03602 5.02883,2.50238 7.55866,3.04408 1.74181,0.37298 3.57015,0.45483 5.36779,0.60815 5.87154,0.50081 11.76844,0.49201 17.56289,-0.49729 7.83749,-1.1082 15.60163,-2.35669 23.28064,-4.00314 0,0 -5.05236,2.97515 -5.05236,2.97515 z"
       inkscape:connector-curvature="0" />
    <g
       id="g5260"
       transform="matrix(1.7531157,0,0,1.6127912,32.564557,14.042616)">
      <g
         transform="matrix(0.67173925,0,0,0.7740583,-13.082738,-18.10827)"
         id="g1502">
        <path
           style="fill:#d40000;stroke-width:0.26458332"
           id="path1468"
           d="m 75.276865,146.56443 c -2.551263,0.77232 -5.094748,1.37177 -7.753625,1.62426 -3.774736,0.13438 -7.545438,0.26075 -11.31875,0.40797 -2.894576,-0.12098 -5.789965,-0.0891 -8.650081,-0.62762 -0.931167,-0.17532 -2.95374,-0.72003 -3.852596,-0.95437 -3.773678,-1.3304 0.0021,0.11545 -3.353943,-1.49339 -0.530698,-0.25441 -1.119264,-0.38294 -1.634889,-0.66666 -0.439441,-0.24181 -0.793949,-0.61407 -1.20776,-0.89751 -1.924274,-1.31802 -0.497366,-0.11924 -2.052536,-1.52635 -3.468198,-1.73157 -6.662365,-4.04914 -9.609775,-6.55852 -1.855763,-0.94282 -3.330501,-2.40176 -4.904906,-3.72684 -0.427923,-0.36016 -0.88782,-0.68493 -1.286556,-1.07715 -1.177863,-1.40419 -0.564703,-0.75366 -1.829291,-1.96116 -1.260638,-1.49377 -2.236652,-3.08403 -2.985958,-4.88283 -0.21317,-3.23625 0.173204,1.21824 -0.347401,-1.59188 -0.0505,-0.27261 0.02277,-0.55515 0.0036,-0.83172 -0.05917,-0.85196 -0.191771,-1.45806 -0.06816,-2.3216 -0.227868,-0.82186 0.233541,-1.55218 0.323311,-2.32749 0.02234,-0.19291 -0.129915,-0.38896 -0.08109,-0.57691 0.120121,-0.46241 0.459459,-0.84242 0.618574,-1.2929 0.166878,-0.20572 0.361835,-0.39153 0.500633,-0.61715 0.52368,-0.85125 -0.312748,0.0429 0.344401,-0.79175 0.444661,-0.56479 0.792968,-0.91324 1.071679,-1.58732 0.553521,-0.90915 1.17197,-1.76022 1.855472,-2.61295 0.755145,-0.88719 1.143575,-2.01203 1.292694,-3.16626 0.02689,-0.23404 0.08772,-0.46664 0.08067,-0.70211 -0.0065,-0.21603 -0.118649,-0.42092 -0.120748,-0.63703 -0.0051,-0.52909 0.230052,-1.04323 0.21857,-1.57222 -0.0323,-1.48789 -0.415193,0.19411 0.104321,-1.47 0.07913,-1.38299 0.647951,-2.749588 1.493319,-3.834258 0.939307,-1.004541 1.74323,-2.110078 2.861806,-2.925498 2.692985,-2.110147 5.696178,-3.870653 8.812321,-5.278855 1.334685,-0.357132 2.798271,-0.812417 4.183967,-0.582107 0.785249,-0.291201 1.530319,-0.07115 2.326209,-0.07048 0.270074,2.27e-4 0.541108,-0.06789 0.809384,-0.03679 0.30642,0.03552 0.968362,0.374769 1.224164,0.494593 1.208836,0.483063 2.226778,1.321211 3.248813,2.122454 0.161068,0.10169 0.359746,0.160009 0.483206,0.305067 0.124635,0.146433 0.104074,0.382709 0.227603,0.530077 0.401402,0.478866 1.218443,0.6229 1.650563,1.019818 0.180216,0.165536 0.242382,0.425172 0.363575,0.637759 0.449024,0.715653 1.118616,1.25711 1.637342,1.901555 0.193069,0.239864 0.27082,0.562462 0.477337,0.79085 1.980351,2.190068 -0.196929,-0.825471 1.267757,1.303497 0.365138,0.345831 1.069636,0.961792 1.323324,1.409483 0.162486,0.286735 0.144147,0.659015 0.327387,0.932965 0.185648,0.27754 0.519597,0.42334 0.744768,0.6699 0.468225,0.5127 0.704223,1.00249 1.044022,1.59812 0.272595,0.60791 0.830929,1.01899 1.161127,1.58442 0.175974,0.30133 0.246758,0.65427 0.404172,0.9657 0.463679,0.91735 1.118309,1.65274 1.56887,2.58188 0.165518,0.94453 0.818687,1.62872 1.255972,2.43341 0.447469,0.82343 0.807339,1.74275 1.210588,2.59198 1.01078,1.66009 1.654196,3.49104 2.493293,5.24496 0.623784,1.43586 1.348399,2.81178 2.407735,3.97163 0.122983,0.23435 0.246562,0.46838 0.368948,0.70303 0.317571,0.60889 0.391956,0.81233 0.794991,1.37473 0.05194,0.0725 0.845587,1.02618 0.878374,1.11512 0.08944,0.24264 0.04091,0.51557 0.06136,0.77336 0.770887,0.49435 0.796769,1.3883 1.254125,2.06981 0.637762,0.95034 0.160295,-0.11895 0.586343,1.00547 0.473821,0.97959 1.119116,1.82847 1.990995,2.48188 0.38436,0.28694 0.22198,0.84117 0.478269,1.17912 0.135152,0.17822 0.432025,0.18027 0.567248,0.35843 0.132723,0.17487 0.08182,0.43821 0.184624,0.63218 0.193645,0.36537 0.516337,0.64662 0.755282,0.98411 0.390474,0.43689 0.601591,0.9646 1.054883,1.34869 0.139258,0.118 0.334121,0.16805 0.454758,0.30503 0.123007,0.13967 0.168317,0.332 0.252473,0.498 0.138761,0.14987 0.277522,0.29975 0.41628,0.44962 0.06803,0.22176 0.05029,0.49164 0.204099,0.66527 0.170754,0.19277 0.497578,0.17539 0.691087,0.34529 0.175892,0.15445 0.250822,0.39529 0.376936,0.59249 0.147441,0.23054 0.326408,0.44349 0.44373,0.69073 0.109267,0.23026 0.08851,0.51724 0.230065,0.72919 0.147725,0.2212 0.403117,0.34712 0.604677,0.52068 0.100134,0.23054 0.200268,0.46109 0.3004,0.69164 0,0 -6.114979,3.45925 -6.114979,3.45925 v 0 c -0.0081,-0.2579 -0.01611,-0.5158 -0.02418,-0.7737 -0.251161,-0.42177 -0.374142,-0.91576 -0.651864,-1.32053 -0.532509,-0.77612 -1.545479,-1.21385 -2.080057,-1.99974 -0.504375,-1.33569 0.124646,0.10341 -0.586351,-0.95497 -0.107304,-0.15974 -0.115043,-0.3788 -0.240265,-0.52492 -0.375574,-0.43824 -1.064755,-0.61563 -1.217906,-1.27769 -1.491102,-1.7562 0.571561,0.85786 -0.474369,-1.12256 -0.0996,-0.18859 -0.349525,-0.25085 -0.490307,-0.41105 -0.395865,-0.45046 -0.716257,-1.02509 -1.040363,-1.52739 -0.228008,-0.27777 -0.381011,-0.61295 -0.616382,-0.88451 -0.122756,-0.14163 -0.332636,-0.1977 -0.437742,-0.35289 -0.110315,-0.16287 -0.07344,-0.39719 -0.181592,-0.56151 -0.690395,-1.04901 -0.291237,0.3968 -0.546766,-0.98171 -0.322345,-0.44249 -0.799936,-0.87799 -1.046369,-1.36602 -0.274415,-0.54344 -0.387371,-1.20083 -0.701397,-1.73528 -0.368052,-1.06312 0.03444,-0.22748 -0.751203,-1.08945 -1.02535,-1.12497 0.072,-0.0621 -0.732694,-1.32938 -0.285615,-0.4498 -0.81537,-0.71224 -1.033309,-1.21956 -0.136729,-0.24728 -0.308671,-0.47814 -0.410181,-0.74183 -0.105754,-0.27472 -0.05725,-0.60471 -0.205971,-0.85875 -0.146494,-0.25024 -0.47149,-0.35282 -0.641016,-0.58806 -0.33796,-0.46897 -0.649565,-1.51659 -1.003779,-2.01657 -0.202425,-0.84387 -0.162015,-0.92886 -0.605988,-1.7087 -0.163894,-0.28788 -0.418987,-0.52236 -0.554856,-0.82447 -0.143515,-0.31912 -0.112778,-0.70227 -0.271893,-1.0139 -0.155152,-0.30387 -0.433097,-0.52731 -0.649645,-0.79097 -0.125804,-0.30708 -0.251608,-0.61416 -0.377412,-0.92124 -0.491006,-1.83052 -1.780223,-3.18827 -2.470484,-4.94869 -0.324567,-0.58523 -0.602006,-1.19636 -0.939731,-1.7741 -0.172423,-0.29495 -0.406961,-0.55162 -0.56991,-0.85191 -0.160049,-0.29495 -0.211238,-0.64518 -0.394877,-0.92605 -0.188783,-0.28873 -0.513816,-0.47034 -0.705607,-0.75709 -0.173442,-0.25931 -0.249647,-0.57182 -0.37447,-0.85773 -0.36572,-0.51684 -0.787148,-0.99272 -1.152818,-1.5096 -0.182685,-0.25823 -0.294577,-0.56394 -0.490133,-0.81257 -0.577723,-0.73451 -1.395294,-1.29907 -1.765644,-2.20285 -1.254416,-1.25043 -2.170515,-2.741337 -3.547361,-3.865081 -0.466418,-0.41483 -0.911135,-0.999024 -1.406869,-1.364842 -0.171392,-0.126477 -0.417079,-0.13856 -0.572141,-0.284594 -0.122182,-0.11507 -0.142663,-0.303848 -0.213992,-0.455771 -0.163901,-0.113052 -0.3278,-0.226105 -0.491699,-0.339157 -0.574167,-0.842115 0.06514,-0.04024 -0.848286,-0.736613 -0.145171,-0.110678 -0.215302,-0.310322 -0.374581,-0.399505 -0.225801,-0.126431 -0.530643,-0.07777 -0.742707,-0.226091 -1.389679,-0.971939 1.043477,-0.112112 -0.929698,-0.679869 -0.151736,-0.08734 -0.283144,-0.229676 -0.45521,-0.262011 -0.04666,-0.0088 -1.559528,0.07645 -1.574872,0.07662 -0.743611,0.0085 -1.490278,-0.113753 -2.229802,0.04058 -0.275434,0.03861 -0.548513,0.102071 -0.826299,0.115819 -0.186418,0.0092 -0.373123,-0.07341 -0.557938,-0.04731 -0.880747,0.124389 -1.7526,0.467908 -2.611739,0.693589 -1.937916,1.21561 -5.895263,3.27501 4.061545,-2.386914 0.142071,-0.08079 -0.265533,0.190709 -0.395131,0.290279 -0.19013,0.146074 -0.371753,0.303136 -0.563904,0.446543 -0.127267,0.09498 -0.262501,0.178795 -0.393753,0.268192 -1.646706,1.320522 0.80577,-0.60393 -1.170646,0.787839 -0.731208,0.514909 -1.199714,1.349476 -1.766928,2.021025 -0.520115,0.733081 -0.198564,0.339662 -1.014076,1.138076 -0.518245,0.676641 -0.62896,1.713527 -0.922536,2.485838 -0.184514,0.930578 0.135623,1.320108 0.06175,2.043658 -0.03087,0.30231 -0.243484,0.5689 -0.266133,0.87194 -0.01643,0.21987 0.101912,0.42903 0.152868,0.64354 -0.01974,0.24173 -0.03948,0.48345 -0.05922,0.72517 -0.05358,0.24649 -0.155799,0.48727 -0.160733,0.73947 -0.0037,0.18884 0.182581,0.36728 0.135499,0.5502 -0.07606,0.29547 -0.364388,0.49742 -0.478036,0.78057 -0.19577,0.48776 -0.0014,1.01997 -0.601267,1.45009 -0.836414,0.74665 -1.112717,1.96715 -2.132211,2.57127 -0.08231,1.20801 -1.209889,1.94046 -1.731665,2.92007 -0.718271,1.05382 -0.05832,-0.0617 -0.445473,1.06653 -0.317013,0.92387 -0.746342,1.74383 -0.457711,2.76539 -0.0846,0.2956 -0.217333,0.5815 -0.253815,0.8868 -0.117281,0.98146 0.251317,2.7308 0.563123,3.67105 0.03408,0.105 0.48095,1.4886 0.51417,1.56248 0.53658,1.19333 1.690474,1.9801 2.373257,3.08672 0.268039,0.30576 0.554628,0.59621 0.804118,0.91728 0.273755,0.3523 0.457664,0.77442 0.763113,1.09962 0.375024,0.39928 0.853301,0.68801 1.26029,1.05465 1.493866,1.34578 2.987852,2.66489 4.592325,3.88695 4.130286,2.89724 -0.347872,-0.15629 3.939288,2.49983 1.156111,0.71627 2.202165,1.6012 3.360817,2.31335 0.47716,0.29328 1.018956,0.4733 1.490898,0.7749 0.358815,0.2293 0.658866,0.53963 0.988296,0.80944 2.464099,1.25454 0.0584,-0.0949 2.199701,1.47561 1.794039,1.31581 3.90766,2.08347 5.929217,2.95821 1.895475,0.35905 3.965199,0.97949 5.869249,1.1811 2.187726,0.23164 4.441246,0.0692 6.635247,0.17279 3.82442,-0.10988 7.68703,0.0549 11.470434,-0.61904 1.35341,-0.16721 2.80235,-0.24749 4.132701,-0.55948 0.774208,-0.18157 1.825022,-0.62871 2.575994,-0.87479 0.327192,-0.10721 0.662297,-0.18858 0.993445,-0.28287 0,0 -5.432798,4.183 -5.432798,4.183 z"
           inkscape:connector-curvature="0" />
        <path
           style="fill:#d40000;stroke-width:0.26458332"
           id="path1470"
           d="m 73.231303,146.12968 c -0.06536,-0.29371 -0.08771,-0.60042 -0.196088,-0.88111 -0.110004,-0.28489 -0.311494,-0.52576 -0.451861,-0.79698 -0.605425,-1.16979 -1.148424,-2.36064 -1.918592,-3.43156 -0.325292,-0.44086 -0.344786,-1.03768 -0.637108,-1.49302 -0.140989,-0.2196 -0.39556,-0.35057 -0.536409,-0.57027 -0.140213,-0.2187 -0.164832,-0.49612 -0.292362,-0.72245 -0.111268,-0.19747 -0.278161,-0.35795 -0.417242,-0.53693 -0.117584,-0.23194 -0.235165,-0.46387 -0.352745,-0.69581 -0.182375,-0.6084 -0.720363,-1.02033 -0.966986,-1.5893 -0.135472,-0.31254 -0.118457,-0.67693 -0.251648,-0.99044 -0.125156,-0.2946 -0.389348,-0.51634 -0.513765,-0.81126 -0.170805,-0.40487 -0.286965,-1.40203 -0.349116,-1.83353 -0.821383,-1.54509 -0.602252,-3.37904 -1.164605,-4.98838 -0.07182,-1.02415 0.0445,-2.05734 -0.02598,-3.08083 -0.02326,-0.33779 -0.125217,-0.66817 -0.136465,-1.00658 -0.02373,-0.71369 0.08032,-1.42603 0.104945,-2.13969 -0.206936,-2.10474 -0.130456,-4.29623 0.154567,-6.4002 0.01579,-1.03217 -0.370491,-2.11716 -0.245827,-3.14917 0.05653,-0.46794 0.311681,-0.89815 0.362622,-1.36673 0.437367,-4.02323 -0.812811,1.96705 0.215368,-2.47514 0.286599,-0.66744 -0.0046,-1.45429 0.226621,-2.12975 0.142401,-0.41607 0.454165,-0.75472 0.644366,-1.15122 1.952958,-4.071229 -1.076695,1.96531 0.663739,-2.03029 0.183309,-0.42083 0.461275,-0.79374 0.691909,-1.19061 1.165397,-2.559338 2.496511,-5.115647 4.358698,-7.241133 1.352466,-1.570693 3.228454,-2.410388 4.627412,-3.901992 1.697665,-1.780128 3.373898,-3.573323 5.045742,-5.379289 2.712759,-2.679573 6.113192,-5.359117 9.931553,-5.89983 1.641004,-0.208756 3.276841,-0.244824 4.928042,-0.177001 0.646419,-0.03889 1.149244,-0.13294 1.781342,0.06901 0.247144,0.07896 0.440412,0.285136 0.686948,0.365982 0.862602,0.282874 1.562382,0.200372 2.346002,0.706303 1.556,0.154612 3.11776,0.279291 4.68465,0.314105 1.30082,0.270301 -0.0161,0.06829 1.70795,0.02204 1.22449,-0.03284 0.37396,0.216352 1.69311,0.04078 1.02885,-0.251756 0.55545,-0.1803 1.41287,-0.258157 1.16886,-0.643474 2.23086,-0.966126 3.54355,-1.095348 0.53615,0.0559 1.03827,-0.215474 1.56515,-0.221327 0.17462,-0.0019 0.33051,0.135946 0.50511,0.138975 0.29468,0.0051 0.58277,-0.137001 0.87667,-0.115004 0.21828,0.01635 0.40296,0.177639 0.61626,0.226746 0.29625,0.0682 0.60243,0.08211 0.90364,0.123163 1.31066,0.74286 1.93334,2.224744 3.11925,3.116149 0.0821,0.498684 0.0914,0.953309 0.38879,1.38439 0.14808,0.214638 0.40703,0.340929 0.54216,0.563943 0.39425,0.650629 0.38757,1.633636 0.52185,2.362348 0.23692,1.734209 0.3186,3.46065 0.29765,5.211295 0.0302,0.263075 0.10553,0.524827 0.0908,0.789223 -0.0172,0.308086 -0.16109,0.599323 -0.1855,0.906925 -0.10165,1.280721 0.18177,2.547644 0.15859,3.825581 -0.13437,1.894605 -0.11791,3.790753 -0.0273,5.687813 -0.42401,1.43492 -1.02752,2.85853 -2.04488,3.98672 -0.7056,0.78246 -1.5493,1.42865 -2.30606,2.16175 -2.5052,2.00848 -4.79337,4.26707 -7.07406,6.52269 -1.55265,1.39407 -2.62155,3.19801 -3.98188,4.74875 -1.57933,1.77101 -3.32928,3.37181 -5.07572,4.97257 -1.73611,1.37114 -3.615585,2.54367 -5.398397,3.84476 -3.614161,2.35863 -7.161266,4.53975 -11.363293,5.39373 -0.920563,-0.0217 -1.801437,0.20041 -2.722391,0.1952 -0.258379,-0.002 -0.518967,-0.0718 -0.774441,-0.0332 -0.598604,0.0906 -1.161335,0.34272 -1.742448,0.51256 -1.958842,1.2133 -5.48237,2.87669 3.827505,-2.12241 0.18006,-0.0967 -0.317365,0.25766 -0.479073,0.38264 -0.75383,0.58261 -0.438465,0.22657 -0.88333,0.84483 -0.759301,0.96627 -1.19313,1.86136 -1.324319,3.08886 -0.569111,0.76561 -0.292293,1.87966 -0.679355,2.687 -0.639172,0.93899 -0.380846,0.46479 -0.79933,1.40906 -0.01042,0.83471 0.09735,0.39032 -0.53027,1.26515 0,0 -6.050655,2.71406 -6.050655,2.71406 v 0 c 0.341781,-0.77159 0.133712,-0.34862 0.651502,-1.25508 0.328493,-1.27052 1.130072,-2.4447 1.189326,-3.76867 0.111966,-0.61679 0.142907,-1.37588 0.416652,-1.95034 0.10849,-0.22766 0.297172,-0.40998 0.412377,-0.63432 0.590114,-1.14915 -0.43162,0.3487 0.435713,-0.84232 2.257113,-2.8829 5.875351,-4.32768 9.117791,-5.89997 1.756867,-0.34667 3.519339,-0.36315 5.292801,-0.65644 3.583983,-0.96946 6.92761,-3.19856 -1.082119,1.57622 -0.264597,0.15773 0.535805,-0.30411 0.803709,-0.45616 1.822061,-1.25501 3.666736,-2.47534 5.468482,-3.76197 1.809345,-1.57887 3.566853,-3.19552 5.210073,-4.95281 0.24516,-0.24608 0.52365,-0.46295 0.73547,-0.73825 0.54096,-0.70305 0.89461,-1.55087 1.52356,-2.25268 0.27147,-0.30291 0.58456,-0.56586 0.87037,-0.85527 0.29524,-0.29897 0.58174,-0.60645 0.87261,-0.90967 1.31414,-1.62253 2.95246,-2.90686 4.47303,-4.33227 0.40676,-0.38131 0.77124,-0.80797 1.19488,-1.17044 0.46271,-0.39591 0.97243,-0.73332 1.45865,-1.09997 1.71153,-1.69988 3.63677,-3.19344 4.33263,-5.61595 0.0385,-0.65898 0.20203,-1.31839 0.13862,-1.97544 -0.0269,-0.27913 -0.26105,-0.51755 -0.26663,-0.79792 -0.007,-0.34095 0.21388,-0.65605 0.23095,-0.99664 0.0298,-0.59491 -0.34649,-1.1669 -0.22262,-1.773045 -0.005,-1.880812 0.24266,-3.760764 0.19678,-5.647722 -0.0679,-1.152768 -0.0906,-0.556712 0.0963,-1.786874 -0.0106,-0.557554 -0.29385,-1.084818 -0.32143,-1.641787 -0.015,-0.302348 0.0777,-0.604407 0.0566,-0.906389 -0.017,-0.243001 -0.11311,-0.473874 -0.16967,-0.710813 -0.0666,-0.666221 -0.0643,-1.628953 -0.38166,-2.237759 -0.10861,-0.20838 -0.36125,-0.317087 -0.47009,-0.525351 -0.82784,-1.584106 0.57312,0.11784 -0.6311,-1.204545 -0.44921,-0.533614 -0.89427,-1.065863 -1.33626,-1.599732 -0.13246,-0.159998 -0.19024,-0.380362 -0.34496,-0.518953 -0.32158,-0.28805 -0.82341,-0.3223 -1.10066,-0.682652 -1.40628,-0.255415 -2.81423,-0.20847 -4.22093,0.06572 -0.78255,0.14302 -1.54888,0.360505 -2.28277,0.657005 -0.25368,0.102489 -0.47752,0.274844 -0.7373,0.360699 -0.14039,0.0464 -0.29507,0.0195 -0.44261,0.02924 -0.78735,0.144836 -1.62732,0.252979 -2.43095,0.219247 -0.24616,-0.01035 -0.48382,-0.113692 -0.7302,-0.114573 -3.310188,-0.01183 0.82421,0.245573 -1.83518,0.04996 -0.65187,-0.01397 -2.655504,-0.03456 -3.182438,-0.155667 -0.198019,-0.04551 -0.328337,-0.258136 -0.524751,-0.31014 -0.299577,-0.07932 -0.617823,-0.04945 -0.926735,-0.07417 -1.847746,-0.236635 -0.160983,0.126204 -1.488823,-0.51512 -0.780518,-0.376973 -1.585397,-0.44595 -2.429648,-0.445667 -0.28099,9.6e-5 -0.561967,-0.0036 -0.842949,-0.0053 -1.591077,-0.121066 -3.187912,0.0146 -4.757756,0.247716 -2.311448,0.71777 -5.940105,3.1564 3.809219,-2.50729 0.253053,-0.147005 -0.507608,0.294106 -0.741889,0.469488 -0.250198,0.187301 -1.393459,1.254135 -1.534202,1.383842 -1.788954,1.652466 -3.315097,3.526369 -4.956664,5.317366 -0.59172,0.673983 -0.770144,0.940982 -1.510152,1.502732 -1.029298,0.781357 -2.357911,1.134555 -3.037607,2.345431 -0.764596,0.70712 -1.61539,1.419699 -2.200143,2.29588 -0.244768,0.366752 -0.347183,0.811379 -0.547722,1.204068 -0.648441,1.269772 -1.708187,2.269876 -2.031,3.68785 -1.073702,2.005264 -0.217871,0.21853 -0.885663,2.127855 -0.505066,1.44406 -1.455537,2.68389 -1.527561,4.27791 -0.136525,2.4395 0.07881,-0.26783 -0.372552,2.48247 -0.243044,1.48094 0.224152,2.95522 -0.07972,4.44448 0.06889,2.09844 0.0714,4.18245 0.06189,6.28484 0.210246,2.02397 -0.200575,4.03538 0.236606,6.05108 0.293466,1.68846 0.574559,3.37676 0.816806,5.07036 0.350875,1.82567 -0.118007,-0.11675 0.595919,1.59022 0.478618,1.14437 0.720783,2.47232 1.682138,3.33348 0.893628,1.15024 0.06334,-0.0579 0.663485,1.2901 0.100346,0.22539 0.291259,0.40449 0.382223,0.63383 0.100624,0.2537 0.07727,0.54693 0.185483,0.79749 0.170702,0.39525 0.758971,1.00637 1.021948,1.30453 0.403342,0.87632 1.138124,1.70196 1.436328,2.61122 0.114128,0.34799 0.02069,0.74752 0.157149,1.08738 1.125114,2.80232 0.208743,-1.15874 0.764672,1.64953 0,0 -5.7336,3.15775 -5.7336,3.15775 z"
           inkscape:connector-curvature="0" />
        <path
           style="fill:#d40000;stroke-width:0.26458332"
           id="path1472"
           d="m 75.917734,146.41893 c -1.303769,0.9022 -2.533709,1.89964 -3.831709,2.80907 -2.548494,2.10191 -4.406519,3.0525 -7.945033,4.92 -0.16342,0.0863 -0.372136,-0.003 -0.553339,0.0335 -0.326837,0.0653 -0.641932,0.17966 -0.962898,0.26948 -1.471602,0.10396 -3.152055,0.33472 -4.365734,1.20945 12.662072,-6.49801 5.56083,-3.8433 4.398436,-2.31009 -0.418615,0.55215 -0.66799,1.44217 -0.894754,2.0781 -1.364425,2.46587 -1.792637,5.33892 -2.450706,8.05901 -0.236479,1.54921 -0.73877,3.08538 -0.937564,4.63909 -0.04581,0.35802 -0.01791,0.72166 -0.02685,1.08249 -0.06634,0.39015 -0.132686,0.7803 -0.199028,1.17045 0.03382,2.33316 0.220067,4.65318 0.696183,6.93801 0.131183,0.40631 0.285982,0.80574 0.393554,1.21893 0.116993,0.44938 0.149757,0.91885 0.279112,1.36483 0.416038,1.43441 1.262816,2.67733 1.762035,4.0743 0.187518,0.52474 0.297434,1.07406 0.446151,1.61109 0.642543,2.11957 1.797171,3.74156 3.062401,5.5086 0.265462,0.37075 0.475115,0.78593 0.785566,1.11992 0.27966,0.30086 0.644192,0.50983 0.966285,0.76474 0.643676,0.46946 1.517436,1.2348 2.236467,1.58037 0.575099,0.27639 1.368534,0.42212 1.986759,0.6137 0.693365,-0.10733 1.421257,0.17098 2.103221,0.14403 0.354113,-0.014 0.696777,-0.15425 1.051126,-0.15958 2.468163,-0.0371 -1.144445,0.43891 1.698802,-0.016 1.565394,-0.11689 3.034154,-0.53869 4.508847,-1.03964 0.57812,-0.25297 1.150934,-0.40738 1.701948,-0.71405 0.219797,-0.12233 0.87753,-0.49224 0.659609,-0.3666 -5.356987,3.08847 -6.676573,4.13783 -4.684424,2.60146 0.465463,-0.42251 1.021381,-0.95541 1.197602,-1.59087 0.05671,-0.20449 -0.05493,-0.4394 0.02458,-0.63614 0.229746,-0.56846 0.667968,-1.02975 0.962018,-1.56777 1.937284,-3.02256 5.453133,-4.88669 8.941792,-5.60075 1.478314,0.0165 2.959041,-0.22202 4.399854,0.16452 1.521812,0.25357 3.015956,0.45004 4.55422,0.46082 2.535957,0.18541 6.702887,-2.54983 -3.126243,2.59294 -0.203851,0.10666 0.403667,-0.25725 0.516647,-0.45767 0.0902,-0.16001 0.03379,-0.36582 0.05068,-0.54873 0.506021,-1.48865 0.847471,-3.2046 0.712314,-4.79043 -0.04189,-0.49154 -0.223732,-0.9617 -0.303017,-1.44861 -0.08936,-0.5488 -0.134985,-1.10383 -0.202477,-1.65574 -0.22741,-0.49484 -0.504095,-0.96989 -0.682231,-1.48452 -0.186947,-0.54009 -0.229084,-1.12255 -0.408054,-1.66534 -0.672716,-2.04022 -0.540612,-0.89584 -1.305716,-2.85663 -1.851924,-4.74604 0.981345,1.66748 -0.964483,-2.63303 -0.261696,-0.31837 -0.57776,-0.59893 -0.78509,-0.9551 -0.357142,-0.61352 -0.422381,-1.36226 -0.74109,-1.9966 -0.355274,-0.70711 -0.883375,-1.41462 -1.316582,-2.08026 -0.112925,-0.86139 -0.816124,-1.31813 -1.182685,-2.05867 -0.105905,-0.21395 -0.127368,-0.4671 -0.253389,-0.66986 -0.70544,-0.7952 -0.405831,-0.37784 -0.913257,-1.24158 -1.397947,-1.58703 0.38771,0.622 -0.688089,-1.41928 -0.270766,-0.51376 -0.879271,-0.79076 -1.162272,-1.29789 -1.177883,-2.11072 0.755322,0.43201 -0.789207,-1.46794 -0.271243,-0.87649 -1.005652,-1.37647 -1.563883,-2.04632 -0.653981,-0.78475 -0.853337,-1.22105 -1.714746,-1.85133 -0.253307,-0.1947 -0.51308,-0.38126 -0.759918,-0.58409 -0.223832,-0.18393 -0.413795,-0.40957 -0.651264,-0.57552 -0.467286,-0.32655 -1.048179,-0.47003 -1.507477,-0.80771 -1.608719,-1.18277 0.920517,0.22684 -1.145185,-0.84317 -1.194009,-0.82687 -2.068917,-1.91728 -2.838278,-3.13026 -0.09921,-0.22515 -0.198416,-0.4503 -0.297625,-0.67546 -0.02498,-0.26421 0.02151,-0.5454 -0.07497,-0.79263 -0.09282,-0.23783 -0.370911,-0.36935 -0.470313,-0.60451 -0.105034,-0.24848 -0.0499,-0.54028 -0.123319,-0.79987 -0.61749,-2.18319 -0.04786,0.71548 -0.418862,-1.36599 -0.08879,-0.19815 -0.177583,-0.39629 -0.266375,-0.59443 0,0 5.881828,-3.24108 5.881828,-3.24108 v 0 c 0.07808,0.20691 0.15617,0.41382 0.234257,0.62072 0.351679,0.71381 0.42114,1.33962 0.64567,2.08584 0.2174,0.72253 0.769377,1.26782 0.606264,2.08125 0.141256,0.16686 0.264144,0.35119 0.423767,0.50057 0.169601,0.15872 0.420693,0.23027 0.557654,0.41788 0.131072,0.17953 0.06633,0.4631 0.209585,0.63308 0.388588,0.46107 1.348375,0.57431 1.637189,1.19639 0.848145,0.56871 0.377515,0.32812 1.427279,0.69083 0.20748,0.12727 0.314764,0.37527 0.503875,0.52852 0.2331,0.18889 0.525031,0.29757 0.754327,0.49107 0.465103,0.39249 0.758976,0.96442 1.279326,1.30257 1.143302,0.81918 1.484651,1.62774 2.420009,2.60793 0.204978,0.21479 0.485368,0.36035 0.653973,0.60474 0.158224,0.22934 0.200785,0.51983 0.301176,0.77974 0.692652,0.68667 1.674846,1.893 2.09083,2.78396 0.119014,0.25491 0.100787,0.56093 0.224599,0.81355 0.105804,0.21587 0.300178,0.3756 0.450268,0.5634 0.714732,1.35634 1.570336,2.63055 2.257531,4.00001 0.403222,0.73679 1.148209,1.48411 1.467006,2.1146 0.157448,0.3114 0.168939,0.6794 0.298876,1.00324 0.285165,0.71073 0.788262,1.32354 0.971362,2.08196 0.487823,0.86998 0.934331,1.57237 1.250545,2.5318 0.166344,0.50471 0.202465,1.04642 0.370271,1.55064 0.523764,1.57378 1.469036,2.99788 1.902556,4.60936 0.25305,1.046 0.66027,2.06241 0.78727,3.13107 0.20001,1.68302 -0.55548,3.30965 -0.49465,4.99399 -1.16024,3.60018 -5.593373,5.54899 -9.222035,5.2719 -1.45864,-0.38587 -3.092911,0.054 -4.537665,-0.56645 -1.452785,-0.18615 -2.94976,-0.15394 -4.383889,0.14679 -2.386198,0.74029 -4.728099,2.44774 4.006201,-2.64758 0.650325,-0.37938 -1.815473,1.04445 -1.271727,1.36676 -0.339696,0.3873 -0.852292,0.88826 -1.009444,1.40555 -0.06291,0.2071 0.07008,0.44022 0.01371,0.64919 -0.186242,0.69031 -0.747858,1.3854 -1.150223,1.95666 -2.421874,2.49328 -6.063604,4.00678 -9.373986,5.17956 -0.897319,0.0731 0.01783,-0.0454 -1.301081,0.3859 -1.045551,0.34187 -2.186728,0.20358 -3.24118,0.52692 -0.856774,0.002 -1.702522,-0.0964 -2.558764,-0.085 -0.282519,0.004 -0.565473,0.0662 -0.846722,0.0392 -0.201412,-0.0193 -0.387236,-0.11753 -0.580853,-0.17629 -0.291193,-0.003 -0.582385,-0.007 -0.873575,-0.01 -0.656836,-0.10159 -0.889315,-0.0722 -1.465977,-0.40379 -0.207177,-0.11911 -0.36069,-0.32015 -0.571201,-0.43327 -0.939332,-0.50477 -1.8205,-0.58208 -2.274358,-1.71569 -0.124812,-0.11383 -2.007132,-1.82844 -2.03834,-1.86611 -0.336274,-0.40588 -0.554603,-0.8967 -0.845724,-1.33609 -0.303493,-0.45806 -0.682908,-0.86892 -0.937752,-1.35573 -0.511903,-0.97786 -0.619353,-2.13647 -1.239983,-3.07028 -1.255911,-2.68609 -0.222084,-0.22457 -1.056847,-2.98331 -0.544232,-1.7986 -1.424935,-3.49488 -1.808094,-5.34587 -0.197622,-0.72687 -0.491159,-1.62206 -0.506907,-2.39039 -0.0087,-0.42252 0.165711,-0.84048 0.127638,-1.26137 -0.03418,-0.37782 -0.285636,-0.71067 -0.339987,-1.08612 -0.114742,-0.79259 0.108529,-1.6094 -0.0374,-2.40227 0.0031,-2.35933 0.305454,-4.73793 1.07329,-6.97678 0.927661,-4.81813 -0.533905,2.49466 0.722207,-2.80066 0.418039,-1.7623 0.510749,-3.61818 1.465575,-5.22695 0.658227,-2.17485 -0.146146,0.16385 0.859689,-1.87208 0.0667,-0.135 0.0249,-0.30811 0.09416,-0.44181 1.298869,-2.50696 6.798194,-2.10493 7.040087,-4.60693 1.393208,-0.50909 2.875827,-0.92345 4.365564,-0.94286 3.073484,-1.09529 2.685658,-1.18936 -3.739023,2.59611 -0.686086,0.40425 2.219211,-1.27916 1.498565,-1.28538 1.407372,-0.99829 2.864308,-1.91741 4.202912,-3.01039 0,0 6.042424,-2.33113 6.042424,-2.33113 z"
           inkscape:connector-curvature="0" />
        <path
           style="fill:#d40000;stroke-width:0.26458332"
           id="path1474"
           d="m 90.758485,130.05951 c 2.175415,-0.97496 4.146188,-2.34207 6.335747,-3.29582 1.4698,-0.51289 3.326138,-1.75033 4.802058,-2.07246 1.72148,-0.60262 3.52436,-0.85647 5.30631,-1.20285 1.61723,-0.001 3.23146,-0.26894 4.85399,0.004 0.32783,-0.0504 0.65184,-0.15583 0.98348,-0.15121 0.27368,0.004 0.53285,0.12647 0.80202,0.17607 0.60201,0.11094 1.22321,0.10504 1.82122,0.2358 0.57407,0.12553 1.12252,0.35222 1.69529,0.48355 0.93012,0.40292 1.93741,0.78458 2.73245,1.43627 0.27241,0.2233 0.47544,0.52026 0.72582,0.76801 0.79599,0.78766 0.66786,0.63486 1.61804,1.25655 0.91798,0.56467 1.47615,1.45839 2.14873,2.25916 0.23661,0.2817 0.53391,0.51148 0.75228,0.80755 1.45628,1.97441 -0.36832,0.0946 1.37703,1.75632 0.93989,1.88973 2.67504,3.06459 4.06202,4.58037 0.1058,0.23929 0.15461,0.51304 0.3174,0.71786 0.39613,0.49841 1.0171,0.78631 1.41347,1.28452 0.17329,0.21781 0.26358,0.49273 0.43041,0.71551 0.32359,0.43214 0.72231,0.71617 1.13453,1.05519 1.18943,1.00004 -0.0664,0.0691 1.43519,0.78177 0.25648,0.12173 0.45973,0.34008 0.71773,0.45853 0.9379,0.4306 1.87205,0.65187 2.78282,1.16596 0.30342,0.13501 0.63507,0.21913 0.91026,0.40506 0.7196,0.48618 1.25055,1.30738 1.79434,1.95588 0.19261,0.2297 0.46195,0.3929 0.632,0.63977 0.16468,0.23908 0.23744,0.52985 0.35617,0.79478 1.00968,0.94349 1.16261,2.1681 1.56884,3.39512 0.79353,2.3969 0.008,-0.63389 0.55312,1.60539 0.33064,0.87381 0.77891,1.81762 0.83423,2.76889 0.0782,1.3449 -0.22295,0.24619 0.19598,1.42361 -0.10787,0.30759 -0.32784,0.59685 -0.3236,0.92278 0.003,0.22368 0.27076,0.36508 0.34312,0.57675 0.27998,0.81896 -0.007,0.66864 -0.15884,1.50048 -0.24845,1.35972 0.38581,-0.23258 -0.30227,1.23612 -0.55529,1.50344 -1.77523,2.51191 -3.0787,3.35554 -3.64438,2.4342 -6.24513,4.2526 -10.30968,4.31323 -1.51079,0.087 -3.01991,0.17917 -4.49211,0.62679 -1.53358,0.79261 -3.19473,1.25388 -4.77489,1.95029 -0.75654,0.0646 -1.48722,0.31282 -2.23358,0.41371 -0.67013,0.0906 -1.45818,0.002 -2.14223,0.0413 -1.72494,0.10319 -3.44105,-0.0562 -5.16606,0.0693 -0.6602,-0.18643 -1.38245,0.0142 -2.04252,-0.1611 -0.31269,-0.0831 -0.56657,-0.31565 -0.86581,-0.43863 -0.3619,-0.14874 -0.79239,-0.14945 -1.1125,-0.37445 -0.2941,-0.20672 -0.4065,-0.59569 -0.64736,-0.86255 -0.25861,-0.28653 -0.56355,-0.52755 -0.84533,-0.79131 -1.9248,-1.83737 -3.29667,-4.1396 -4.90974,-6.23467 -0.21789,-0.42236 -0.37972,-0.87874 -0.65367,-1.26709 -0.25881,-0.36689 -0.61796,-0.65152 -0.92852,-0.97577 -1.03474,-1.08035 -2.088656,-2.10792 -3.192611,-3.11613 -1.436638,-1.16394 -3.339635,-1.65752 -4.70576,-2.87577 -0.868448,-0.32926 -1.826448,-1.01255 -2.666699,-1.34902 -0.354856,-0.1421 -0.749157,-0.16101 -1.110861,-0.28465 -0.529278,-0.18091 -1.525458,-0.69748 -2.018183,-0.94255 -2.368053,-0.80053 -4.171059,-2.56625 -6.124308,-4.04621 -2.067639,-1.16326 -3.764441,-2.92885 -6.048745,-3.70095 -1.032389,-0.27798 -1.910019,-0.42927 -2.974531,-0.38941 0,0 5.657112,-3.98774 5.657112,-3.98774 v 0 c 0.964824,0.26499 1.944261,0.38383 2.913176,0.63669 2.661708,1.3266 -0.719479,-0.43789 1.731735,1.09392 0.354042,0.22125 0.766548,0.33989 1.116452,0.56762 1.086016,0.70682 1.989238,1.72955 3.20209,2.26113 1.878016,1.55049 3.812257,3.01641 6.142252,3.83478 1.968323,0.84362 3.883398,1.7902 5.868736,2.58919 1.340415,1.32983 3.044015,2.23061 4.782635,2.93402 0.5255,0.48164 1.13982,0.87107 1.61251,1.40463 0.2646,0.29867 0.41202,0.68561 0.65636,1.00107 0.26336,0.34002 0.60818,0.6128 0.86237,0.95974 1.99495,2.72288 -0.75268,-0.40343 1.68799,2.24136 1.12862,1.45856 0.61308,0.68588 1.5401,2.32238 0.26112,0.36631 0.61651,0.65644 0.89895,1.00657 0.77263,0.95777 1.49612,1.93591 2.36273,2.81869 1.54363,1.92084 2.91198,2.02957 5.23203,2.19014 3.14032,-0.002 -1.3329,0.0399 2.17098,-0.13696 1.00219,-0.0506 2.02978,0.24745 3.0495,-0.007 1.25577,0.18117 3.02753,-0.24532 4.24821,-0.6158 1.5228,-0.62214 3.00073,-1.35106 4.60771,-1.75065 1.53547,-0.38256 3.09671,-0.66513 4.6869,-0.62022 0.71134,-0.0968 1.49799,-0.10266 2.19235,-0.29524 2.23807,-0.62071 6.06557,-3.51944 -3.31751,2.30273 1.24368,-0.86021 2.42165,-1.65168 3.20931,-2.97303 0.23934,-0.58328 0.27667,-1.01258 0.33258,-1.62223 0.0252,-0.27532 0.14863,-0.54027 0.1447,-0.81671 -0.0333,-2.34237 -0.43005,1.26443 -0.0567,-1.44193 -0.20825,-1.39288 -0.30317,-2.77448 -0.88461,-4.07772 -0.46824,-1.02914 -0.31602,-0.47354 -0.41868,-1.67676 -0.11781,-0.28183 -0.47994,-0.412 -0.5995,-0.69309 -0.13097,-0.30789 -0.0211,-0.67677 -0.11927,-0.99666 -0.16304,-0.53159 -0.6057,-1.03019 -0.93676,-1.45818 -0.33354,-0.66865 -0.79038,-1.56446 -1.36479,-2.06721 -0.62421,-0.54633 -1.57423,-0.77831 -2.0915,-1.4865 -0.72409,-0.24184 -1.15522,-0.35174 -1.83332,-0.71629 -0.27138,-0.1459 -0.49611,-0.3748 -0.77811,-0.49891 -0.89974,-0.39597 -1.91496,-0.34437 -2.56986,-1.20971 -1.37266,-1.02787 -2.16972,-2.5692 -3.12769,-3.97004 -1.34652,-1.48179 0.41252,0.38667 -1.28156,-1.16529 -1.10315,-1.01061 -2.11056,-2.15339 -3.05281,-3.31343 -0.79619,-1.20364 -1.61328,-2.42255 -2.65197,-3.43723 -0.24657,-0.24088 -0.56168,-0.40837 -0.79225,-0.66461 -0.20433,-0.22707 -0.33202,-0.51285 -0.49803,-0.76927 -0.32987,-0.15734 -0.68497,-0.2701 -0.98959,-0.47202 -0.29091,-0.19285 -0.50977,-0.47752 -0.7786,-0.70011 -0.98863,-0.81859 -2.02369,-1.54935 -3.24076,-1.98727 -1.69483,-0.26641 -3.3654,-0.60844 -5.08025,-0.69168 -0.79667,0.0556 -1.58116,-0.0756 -2.37233,0.019 -0.35776,0.0428 -0.7038,0.16651 -1.06281,0.19703 -0.24543,0.0208 -0.49176,-0.0293 -0.73764,-0.044 -0.32455,0.0449 -0.64909,0.0897 -0.97363,0.13459 -0.58567,0.0845 -1.18423,0.081 -1.763954,0.19963 -1.120097,0.22924 -2.157963,0.74974 -3.261839,0.99494 -1.579795,0.68662 -3.168554,1.35323 -4.730048,2.0844 -2.153875,1.08628 -4.208595,2.36558 -6.446684,3.27911 0,0 5.29659,-4.1149 5.29659,-4.1149 z"
           inkscape:connector-curvature="0" />
        <path
           style="fill:#d40000;stroke-width:0.26458332"
           id="path1476"
           d="m 36.823496,146.25887 c -1.937996,-0.0306 -3.7988,0.36352 -5.467995,1.34635 12.635274,-7.2364 4.940995,-2.99061 3.950837,-2.16904 -0.177948,0.14764 -0.296026,0.35621 -0.460203,0.51903 -0.784505,0.77802 -1.535149,1.46136 -2.20572,2.34766 -1.51797,2.2949 -3.45989,4.27833 -4.8617,6.64738 -1.219539,1.16229 -1.94656,2.67673 -2.790262,4.10089 -1.166715,1.9694 -0.148452,-0.0442 -1.022378,1.76696 -0.553262,1.65573 -1.838299,2.96359 -2.109789,4.70264 -0.903733,1.50575 -1.512322,3.12051 -2.14847,4.75223 -0.45356,1.81166 -0.617987,3.66618 -0.849327,5.52327 -0.01719,0.3245 -0.05735,0.6486 -0.05157,0.97351 0.011,0.61909 0.131599,1.23286 0.145106,1.8519 0.02219,1.017 -0.195727,1.94281 -0.126857,2.95853 0.301053,0.60014 -0.122359,1.18717 -0.07109,1.77814 0.02121,0.2445 0.237826,0.44013 0.276027,0.68256 0.13459,0.85414 -0.189741,1.03309 -0.08989,1.90553 0.03666,0.32028 0.18971,0.6162 0.284565,0.9243 0.519266,1.85673 1.134156,3.99495 2.701791,5.24155 1.101956,0.79326 -0.09006,0.0624 1.362756,0.50956 0.17761,0.0547 0.316238,0.19589 0.480928,0.28197 0.656439,0.34312 1.175066,0.47148 1.910851,0.52819 0.483426,0.0641 1.138326,0.19154 1.627014,0.0359 0.1836,-0.0585 0.673457,-0.37483 0.504971,-0.28134 -5.589134,3.10118 -7.014679,4.34543 -4.998776,2.65196 1.975268,-2.46774 3.858231,-2.88939 7.322428,-4.77176 0.535028,-0.29072 0.730983,-0.23433 1.264492,-0.22997 0.690263,-0.267 1.294336,0.0445 1.971445,0.0826 0.290576,0.0163 0.58911,-0.10486 0.872289,-0.0377 0.198831,0.0472 0.32985,0.24131 0.494776,0.36196 0.250952,0.0576 0.501904,0.11519 0.752858,0.17278 0.43919,0.62443 1.170451,0.58876 1.783464,0.89125 0.461605,0.22777 0.344421,0.53187 0.97563,0.3631 0.270584,-0.0724 0.494916,-0.26241 0.742376,-0.39361 -12.396965,6.76765 -5.594901,3.6008 -4.531654,2.21281 0.253952,-0.33151 0.364509,-1.01904 0.52637,-1.37691 0.63446,-1.40274 0.512998,-0.40758 0.519565,-1.66677 0.01577,-0.24525 -0.0047,-0.49555 0.04731,-0.73576 0.06354,-0.29373 0.226486,-0.55921 0.29609,-0.85156 0.264682,-1.11175 0.236657,-2.28896 0.473115,-3.41191 0.175723,-1.81437 0.969388,-3.43914 1.520161,-5.14096 0.78127,-1.33485 1.716249,-2.57671 2.70115,-3.76712 0.682897,-1.10508 1.371645,-2.1897 2.2124,-3.18087 0.592662,-0.95202 1.208006,-1.89357 1.904164,-2.77408 0.450501,-0.56801 0.649071,-1.29586 1.056841,-1.88733 0.571156,-0.82847 0.417703,-0.22911 0.516316,-0.97507 0.517242,-1.0905 1.320054,-2.07625 2.079437,-3.02397 0.932755,-0.79656 1.875203,-1.56907 2.894574,-2.2529 0.117763,-0.11619 0.235527,-0.23238 0.35329,-0.34857 0,0 6.297755,-2.52698 6.297755,-2.52698 v 0 c -0.193344,0.15262 -0.386688,0.30523 -0.580035,0.45784 -0.926275,0.66323 -1.738503,1.43941 -2.704124,2.04765 -2.142072,1.73939 0.125087,-0.33199 -0.647081,0.85784 -0.130561,0.20118 -0.36395,0.31552 -0.518067,0.49929 -0.390493,0.4656 -0.769676,0.97683 -1.084702,1.49424 -0.115721,1.05653 -1.202245,1.87665 -1.489226,2.89944 -0.198474,0.30514 -0.304855,0.66747 -0.524081,0.95806 -0.468154,0.62055 -1.196157,1.09643 -1.367425,1.91441 -0.742061,1.07734 -1.72144,1.99571 -2.29612,3.1932 -0.853681,1.20404 -1.877661,2.25467 -2.557796,3.57708 -0.968094,1.43423 -1.51861,3.26077 -1.667589,4.97878 -0.07949,0.33727 -0.15898,0.67453 -0.238469,1.0118 0.0136,0.27581 0.07989,0.55406 0.04083,0.82743 -0.04407,0.30847 -0.217313,0.58602 -0.286192,0.88991 -0.179364,0.79134 -0.175903,1.63731 -0.442984,2.41537 -0.884878,2.72374 0.193252,-0.88441 -0.276849,1.6095 -0.658008,3.49077 -4.996638,4.81774 -7.540033,6.15486 -0.603347,0.0969 -0.946382,0.2441 -1.535078,0.007 -0.181842,-0.0734 -0.297524,-0.26125 -0.471426,-0.35183 -0.563896,-0.29373 -1.240015,-0.3725 -1.689381,-0.88253 -0.427495,-0.10187 -0.826177,-0.32592 -1.262202,-0.38082 -0.259946,-0.0327 -0.523357,0.0576 -0.784882,0.0419 -0.159281,-0.01 -0.304596,-0.11467 -0.464148,-0.11718 -0.22975,-0.004 -1.199105,0.17849 -1.438304,0.22082 -0.347948,0.0695 -1.335207,0.44298 -1.032926,0.25717 10.904837,-6.70296 5.118821,-3.65539 4.088999,-2.03275 -1.355558,2.00649 -5.91822,5.15687 -8.932,4.12144 -0.474824,-0.0902 -0.855462,-0.13244 -1.299737,-0.32912 -0.171308,-0.0758 -0.306145,-0.22664 -0.483863,-0.28592 -0.811553,-0.27067 -1.627781,-0.17458 -2.205354,-0.95447 -0.137711,-0.13651 -1.237033,-1.21751 -1.315461,-1.33371 -0.855438,-1.26744 -1.026696,-2.94706 -1.347089,-4.39366 -0.192149,-0.27624 -0.483738,-0.50525 -0.576447,-0.82873 -0.09315,-0.325 0.04951,-0.67501 0.04858,-1.0131 -0.0016,-0.60108 0.04364,-1.20309 0.0098,-1.80322 -0.112855,-1.99847 -0.313158,0.58902 -0.04655,-1.71949 -0.232868,-2.48544 0.02084,0.85938 0.02782,-1.91688 7.94e-4,-0.31771 -0.09458,-0.6297 -0.106121,-0.94719 -0.03516,-0.96747 0.186151,-1.93988 -0.01292,-2.90308 0.162441,-0.97359 0.222535,-1.9689 0.382904,-2.93687 0.05771,-0.34831 0.202334,-0.67878 0.256319,-1.02768 0.04544,-0.29369 -0.02407,-0.60055 0.0405,-0.89064 0.07258,-0.32606 0.243629,-0.62207 0.365444,-0.93311 0.184261,-0.58558 0.4203,-1.15637 0.563683,-1.75328 0.05158,-0.21472 0.01319,-0.44705 0.07947,-0.65769 0.247615,-0.787 0.79237,-1.5052 1.118518,-2.25647 1.196055,-2.10288 -0.08367,0.37788 0.578895,-1.59792 0.356487,-1.06305 1.224073,-1.95548 1.435548,-3.09121 1.25581,-2.02559 2.312313,-4.14895 3.833474,-6.00167 1.07844,-1.51858 2.173878,-3.0457 3.341057,-4.49663 0.335925,-0.4176 0.744102,-0.77647 1.056733,-1.21177 0.223929,-0.3118 0.361962,-0.67708 0.542942,-1.01562 2.434381,-3.6428 6.463898,-5.55131 10.217779,-7.59493 0.735121,-0.35034 1.098061,-0.57522 1.901794,-0.75096 1.226661,-0.26821 2.556086,-0.12066 3.790788,-0.35595 0,0 -5.534623,4.02114 -5.534623,4.02114 z"
           inkscape:connector-curvature="0" />
        <path
           style="fill:#ffff00;stroke-width:0.26458332"
           id="path1478"
           d="m 70.016501,153.92364 c -0.384609,-0.92324 -1.087093,-1.62325 -1.470392,-2.5506 -0.131162,-0.31732 -0.160841,-0.67282 -0.30852,-0.98281 -0.662345,-0.94935 -0.393565,-0.44976 -0.815658,-1.49374 0.272711,-0.90344 -0.577543,-1.39596 -0.695198,-2.19827 -0.03542,-0.24156 0.01458,-1.63848 0.05362,-1.93398 0.545574,-1.78977 -0.212489,0.50949 0.660826,-1.47382 0.08478,-0.19253 0.06144,-0.42528 0.162343,-0.60987 0.427019,-0.78117 1.193676,-1.48648 1.83297,-2.08495 2.319798,-2.46366 4.612367,-3.28656 8.028495,-5.17024 0.657241,-0.3624 0.712238,-0.29046 1.360057,-0.27995 0.268875,-0.0323 0.539657,-0.14247 0.806624,-0.097 0.172318,0.0294 0.268947,0.22861 0.425276,0.30682 0.177085,0.0886 0.387085,0.098 0.563538,0.18787 0.535824,0.27283 0.822558,0.77243 1.147149,1.24915 0.700775,0.5761 0.983083,1.40311 1.418294,2.15007 0.121245,0.2081 0.354957,0.35069 0.432681,0.57864 0.07597,0.22281 0.0036,0.4708 0.0054,0.7062 0.718585,1.13503 0.03125,-0.10586 0.452925,1.21879 0.06646,0.20878 0.258638,0.37233 0.292073,0.58887 0.08652,0.56034 -0.188042,1.31417 -0.423638,1.80343 -0.02074,0.12557 0.0055,0.26895 -0.06226,0.37673 -0.01426,0.0227 -0.807355,0.82613 -0.892529,0.87712 -2.109282,1.26259 -4.259474,2.45556 -6.389264,3.68325 -1.737014,1.00128 6.972726,-3.96104 5.210937,-3.00402 -2.101197,1.14138 -4.152953,2.37151 -6.229427,3.55727 -0.86437,0.30925 -2.472838,0.90451 -3.340224,0.3568 -0.176671,-0.11156 -0.220554,-0.35495 -0.33083,-0.53242 -1.198451,-1.30679 0.224938,0.35159 -0.745575,-1.1389 -0.130579,-0.20054 -0.374417,-0.31981 -0.478308,-0.53539 -0.2931,-0.60821 -0.129297,-1.53624 -0.180774,-2.19415 0.03269,-0.67229 0.196204,-1.16825 0.815388,-1.52767 2.067687,-1.20025 4.129193,-2.41742 6.264581,-3.49262 0.238573,-0.12012 0.53579,-0.11062 0.798778,-0.0639 0.195529,0.0348 0.344095,0.19838 0.516141,0.29756 0.969949,0.54201 0.345879,0.0456 0.917757,0.93891 0.124984,0.19522 0.320241,0.34319 0.426771,0.54907 0.316465,0.61161 0.354528,1.4155 0.58135,2.06856 0.184814,1.23153 0.125886,0.22923 -0.07345,1.51407 -0.168799,1.08803 -0.102828,1.32274 -0.914212,2.17081 -2.802793,1.72397 -5.734556,5.43715 -9.037746,3.97917 -1.228776,-1.32905 0.209658,0.42256 -0.563751,-1.25357 -0.1017,-0.22041 -0.380722,-0.3199 -0.495125,-0.53399 -0.276966,-0.51829 -0.461873,-1.68394 -0.615355,-2.27922 -0.244335,-1.03267 -0.106238,-2.13169 -0.250846,-3.16688 -0.0327,-0.23407 -0.226052,-0.44178 -0.209076,-0.67752 0.02387,-0.33127 0.217119,-0.62776 0.325681,-0.94164 -0.223983,-1.13484 0.357703,-2.30452 0.772771,-3.35873 -0.388192,-0.19842 0.167658,-0.77357 -0.180909,-0.98993 -0.07725,-0.048 -1.157994,-0.25078 -1.436584,-0.37714 -0.108564,-0.0234 -0.221398,-0.10825 -0.325687,-0.0701 -0.243911,0.0892 -0.879792,0.55117 -0.651385,0.42753 1.930027,-1.04468 3.820483,-2.16191 5.758415,-3.19186 0.207021,-0.11002 -0.404643,0.25078 -0.55807,0.42805 -0.15535,0.17949 -0.329895,0.85586 -0.385783,1.04164 -0.227325,0.66043 -0.279104,1.38215 -0.233627,2.07802 0.01498,0.22922 0.127465,0.45309 0.102605,0.68145 -0.03355,0.30816 -0.289764,0.57925 -0.273545,0.88882 0.0104,0.19857 0.230389,0.32416 0.345583,0.48624 0.02955,0.45196 0.634572,1.40176 0.975239,1.67914 0.279852,0.22787 0.747611,0.24628 1.070186,0.29609 0.820153,0.12224 1.719453,0.4488 2.534372,0.11283 0.221195,-0.0912 0.818994,-0.49471 0.609902,-0.37842 -1.815441,1.00968 -3.619719,2.03929 -5.429581,3.05894 0.432245,-0.5853 1.012058,-2.13454 1.015437,-2.82385 0.0011,-0.21513 -0.10876,-0.4163 -0.163137,-0.62445 0.117435,-0.71496 -0.0061,-1.54766 0.182346,-2.2486 0.06618,-0.24607 0.238439,-0.45169 0.330737,-0.68921 0.05283,-0.13595 0.01836,-0.3062 0.102399,-0.42542 0.127709,-0.18118 0.335732,-0.28953 0.5036,-0.43429 2.098698,-1.12428 4.131828,-2.38062 6.296093,-3.37282 0.159462,-0.0731 0.284716,0.20886 0.443723,0.28295 0.197305,0.0919 1.256635,0.39718 1.394888,0.57797 0.172688,1.00854 -0.02804,0.5588 0.592143,1.35368 0.04856,0.2249 0.0491,0.46588 0.145687,0.6747 0.192376,0.41591 0.666205,0.66073 0.849921,1.08055 0.26602,0.60789 0.163222,1.55319 0.231593,2.20587 -0.260435,0.51383 0.21073,0.94808 0.193913,1.42822 -0.02418,0.69026 -0.654352,2.32137 -1.005025,2.95184 -1.88817,2.82583 -5.459825,4.60548 -8.549357,5.63966 -1.18114,0.51081 -2.514544,0.0787 -3.698671,0.48819 1.891435,-1.05671 3.796313,-2.08972 5.674307,-3.17014 0.206044,-0.11854 -0.306517,0.0154 -0.223073,0.0609 0.292045,0.15959 0.771229,0.20058 1.083892,0.23664 0.579168,0.33124 1.145538,-1.6e-4 1.709838,-0.18784 0.150834,-0.0502 0.593162,-0.22038 0.455666,-0.14062 -6.279809,3.64283 -6.741618,4.00533 -4.741971,2.55906 0.730874,-0.57166 0.80437,-1.37127 0.958344,-2.20946 0.216755,-1.17996 0.284255,-0.31984 0.08103,-1.39264 0.329313,-0.9787 -2.65e-4,-1.77999 -0.186513,-2.70582 -0.04436,-0.22064 -0.03277,-0.44892 -0.04915,-0.67337 -0.04765,-0.23128 -0.0953,-0.46255 -0.142951,-0.69383 -0.68134,-0.39986 -0.832573,-1.38022 -1.425327,-1.84158 -0.235109,-0.18299 -0.80382,-0.30535 -1.071263,-0.37765 -0.661895,-0.22949 -1.380067,-0.22503 -2.070526,-0.1514 -0.131612,0.014 -0.5006,0.15885 -0.386205,0.0923 5.266934,-3.06522 6.028296,-4.38804 4.803135,-2.45055 -0.597416,0.63252 -0.63318,1.40339 -0.873199,2.20162 0,0 -5.894115,2.87682 -5.894115,2.87682 v 0 c 0.04173,-0.90346 -0.03268,-1.64043 0.569098,-2.40094 1.825072,-3.03467 5.99141,-4.98679 9.392906,-3.8997 0.119933,0.0501 1.163648,0.47356 1.248839,0.56291 0.146889,0.15408 0.08828,0.43587 0.227878,0.59658 0.16094,0.18527 0.471183,0.19678 0.626403,0.38688 0.286137,0.35041 0.08474,0.96882 0.540795,1.2448 0.851318,1.6034 -0.159273,-0.45637 0.446024,1.34944 0.06805,0.20302 0.269256,0.35114 0.313595,0.56062 0.0541,0.25565 -0.06397,0.5244 -0.02914,0.78338 0.03023,0.22478 0.24027,0.41751 0.221038,0.6435 -0.02799,0.32887 -0.236329,0.61637 -0.354494,0.92456 0.372102,1.35823 0.06774,2.80846 -0.675833,3.99116 -2.02243,2.2466 -0.452972,0.60992 -6.642309,4.01909 -0.25168,0.13863 -0.516131,0.26487 -0.795526,0.33195 -0.587073,0.14097 -1.337685,-0.0694 -1.926621,-0.10909 -0.803678,-0.86869 0.363717,0.24075 -1.060818,-0.40116 -0.158621,-0.0715 -0.564068,-1.25492 -0.530799,-1.27638 1.965624,-1.26823 4.071622,-2.30439 6.107435,-3.45658 1.810067,-0.24907 -0.624038,0.014 0.818528,0.0544 0.955082,0.0268 1.833967,-0.39876 2.756051,-0.53933 2.305396,-1.00795 1.150189,-0.5267 -4.670351,2.80512 -0.133622,0.0765 0.251428,-0.17811 0.371398,-0.27462 0.547608,-0.4405 1.189757,-0.76966 1.583894,-1.36429 0.271806,-0.61797 0.718775,-1.30858 0.929661,-1.93207 0.21118,-0.62435 0.06851,-1.41829 0.04142,-2.05385 -0.0759,-0.43672 -0.06932,-0.8957 -0.225558,-1.31052 -0.07295,-0.19368 -0.280278,-0.32426 -0.332046,-0.52464 -0.06024,-0.23317 0.07621,-0.49089 0.0099,-0.7224 -0.121881,-0.42541 -0.693293,-0.64422 -0.625012,-1.17124 -0.407993,-0.37606 -0.549379,-0.46366 -0.862346,-0.90945 -0.09805,-0.13965 -0.107167,-0.36295 -0.258461,-0.44187 -0.176424,-0.092 -0.399465,0.0203 -0.596924,-0.004 -1.976755,-0.24593 -4.879221,-12.34274 5.015563,-3.24909 -0.323839,0.14012 -0.828503,0.31264 -1.045898,0.6166 -0.06983,0.0976 0.02196,0.24327 -0.0058,0.36006 -0.178679,0.75262 -0.527037,1.3848 -0.172144,2.17199 -0.02246,0.25573 -0.07066,0.51048 -0.06738,0.76717 0.0029,0.22315 0.123058,0.44398 0.08566,0.66399 -0.05017,0.29514 -0.280183,0.53798 -0.339836,0.83135 -0.03897,0.19163 0.09669,0.39398 0.05198,0.58435 -0.05931,0.2525 -0.234796,0.46256 -0.352195,0.69384 -0.0327,0.15912 -0.06539,0.31823 -0.09809,0.47734 -5.071248,3.02068 -5.142662,4.53208 -9.493787,3.49202 -0.870429,-0.17695 -1.026745,-0.33196 -1.596779,-0.95822 -0.142174,-0.1562 -0.348856,-0.25395 -0.465188,-0.43023 -0.233045,-0.35315 -0.132786,-0.87927 -0.553392,-1.14235 0.07978,-2.69872 0.07092,0.93156 -0.215022,-1.42112 -0.08009,-0.65901 0.192657,-0.94425 0.222573,-1.5935 0.01019,-0.22131 -0.09431,-0.4371 -0.08945,-0.65859 0.0053,-0.24296 0.07981,-0.47944 0.119708,-0.71916 0.08556,-0.41346 0.07972,-0.85441 0.245853,-1.24258 1.077577,-2.51772 4.674389,-4.61877 7.49854,-4.09038 1.369224,0.33132 2.008458,0.70204 2.173971,2.19204 0.04728,1.51988 -1.259168,1.86745 -0.925447,3.27879 -0.04194,0.29725 -0.205208,1.3083 -0.169619,1.62332 0.02619,0.2319 0.188375,0.43372 0.218567,0.66514 0.101201,0.77569 -0.237998,1.59124 0.08179,2.35313 0.133964,0.20115 0.327906,0.37338 0.401889,0.60345 0.08157,0.25369 -0.0031,0.53657 0.04874,0.79794 0.09188,0.46295 0.224784,0.9301 0.46074,1.33886 0.08898,0.15415 0.284403,0.22479 0.380545,0.37458 0.07464,0.11628 0.07694,0.26543 0.115408,0.39814 0.252357,0.0139 0.603242,0.0555 0.854194,-0.0183 0.222616,-0.0654 0.839129,-0.39195 0.641295,-0.27071 -9.250087,5.66892 -6.129753,3.62408 -4.147622,2.43158 1.011174,-0.60864 1.204937,-1.81005 0.98374,-2.90322 -0.06311,-0.44912 2.64e-4,-0.92403 -0.148484,-1.35245 -0.06373,-0.1835 -0.274249,-0.28899 -0.34434,-0.47017 -0.285895,-0.73899 0.169207,-1.02943 -0.983498,-1.01568 -0.12522,-0.0498 -0.240917,-0.14688 -0.375658,-0.14946 -0.193387,-0.004 -0.728718,0.23472 -0.565185,0.13143 1.722951,-1.08825 3.526004,-2.04474 5.26818,-3.10195 0.368305,-0.2235 -1.954813,0.99725 -1.135616,0.98982 -0.06873,0.22195 -0.195686,0.43374 -0.20619,0.66586 -0.04069,0.89919 0.791488,1.8876 1.206582,2.60929 0.997059,0.61201 2.337816,0.0429 3.315695,-0.40264 -14.115714,8.12605 1.016508,-0.58735 1.155034,-0.65697 1.786699,-0.89792 -3.436374,2.04591 -5.160804,3.05828 -0.852903,0.50072 1.990312,-1.27425 1.179766,-0.9626 0.128754,-0.28837 0.415245,-0.51305 0.466381,-0.82469 0.02466,-0.15024 -0.124677,-0.28156 -0.148418,-0.43194 -0.105267,-0.66681 -0.0927,-1.23154 -0.544179,-1.80618 -0.349133,-1.18047 -0.722085,-2.4392 -1.740215,-3.22799 -0.451241,-1.07235 -1.384469,-1.13815 -2.439045,-1.18517 -2.241717,0.70946 -5.457325,2.86651 3.787457,-2.486 0.205476,-0.11896 -0.400513,0.25558 -0.593074,0.39448 -0.241252,0.17402 -0.4801,0.35211 -0.70762,0.54374 -0.170894,0.14393 -0.324017,0.30773 -0.486024,0.4616 -1.106334,1.11198 -2.184659,2.19882 -2.675207,3.73238 0.02854,1.45247 -0.34208,2.35577 0.566335,3.74488 0.191262,0.5488 0.439714,1.07735 0.614971,1.63147 0.09985,0.31572 0.09102,0.66624 0.231733,0.96599 0.140832,0.30001 0.415308,0.51804 0.595495,0.79619 1.038127,1.60255 -0.123574,0.15158 1.026224,1.50071 0,0 -5.881667,3.51536 -5.881667,3.51536 z"
           inkscape:connector-curvature="0" />
      </g>
      <path
         inkscape:connector-curvature="0"
         d="m 38.214186,84.963708 c -0.261832,-1.746927 -0.07308,0.301239 0.209214,-1.790036 0.03562,-0.263903 -0.09348,-0.528553 -0.08246,-0.79462 0.03566,-0.861039 0.305858,-1.743094 0.38576,-2.607689 0.31615,-0.853032 0.330284,-1.820275 0.737105,-2.644296 0.514117,-1.041347 0.326001,-0.223036 0.457565,-0.998677 0.647422,-0.562153 0.772483,-1.417596 1.172004,-2.123784 0.224499,-0.396822 0.512717,-0.754634 0.747302,-1.145577 0.534765,-1.415865 1.430623,-2.643376 2.339684,-3.838459 1.034013,-1.021315 1.958189,-2.004446 2.715038,-3.245326 0.469291,-0.53286 0.982707,-1.161434 1.288057,-1.813923 0.07599,-0.162382 0.04892,-0.359698 0.119973,-0.524303 0.996066,-2.307582 -0.132038,0.941117 0.657521,-1.458526 0,0 0.652161,-0.306645 0.652161,-0.306645 v 0 c -0.41838,1.376252 -1.068369,2.719298 -2.028052,3.800219 -0.659318,1.27313 -1.679427,2.244918 -2.690974,3.241191 -0.976834,1.15639 -1.845469,2.459585 -2.42125,3.864303 -0.574238,1.074417 -1.199054,2.116121 -1.754751,3.199688 -0.681368,1.050909 -1.178705,2.37586 -1.238591,3.62091 -0.198736,1.757212 -0.632317,3.47069 -0.616196,5.23481 0,0 -0.64911,0.33074 -0.64911,0.33074 z"
         id="path5217"
         style="fill:#241c1c;fill-opacity:1;stroke-width:0.26458332" />
      <path
         inkscape:connector-curvature="0"
         d="m 30.217972,91.454371 c -1.020286,-0.121298 -1.944071,-0.539631 -2.893137,-0.89113 -0.362217,-0.134152 -0.751998,-0.197122 -1.099634,-0.36549 -0.569127,-0.27564 -1.051006,-0.704548 -1.593997,-1.028652 -1.130914,-0.486082 -1.902382,-1.402393 -2.749657,-2.233425 -1.045613,-1.025565 -0.355785,0.02016 -1.062092,-1.279424 -1.190494,-1.146019 -1.990072,-2.624664 -2.974737,-3.945192 -1.129042,-1.804307 -2.106803,-3.694059 -2.845138,-5.690391 -0.654091,-1.269521 -0.365025,-0.635926 -0.875595,-1.896933 0,0 0.649545,-0.370326 0.649545,-0.370326 v 0 c 0.721908,1.168325 0.440381,0.525473 0.806314,1.944864 0.790082,1.973953 1.938055,3.7547 2.80764,5.69358 1.612335,1.509143 -0.237814,-0.359823 0.986668,1.30901 0.167803,0.228695 0.433883,0.371541 0.607633,0.595754 0.494393,0.637977 0.789367,1.460513 1.40465,2.020546 0.968929,1.430526 2.416001,2.471338 3.787164,3.499858 1.800859,0.908392 3.607098,1.758633 5.551077,2.281844 0,0 -0.506704,0.355507 -0.506704,0.355507 z"
         id="path5219"
         style="fill:#241c1c;fill-opacity:1;stroke-width:0.26458332" />
      <path
         inkscape:connector-curvature="0"
         d="m 26.207647,96.385217 c -1.798516,0.750719 -3.714758,1.245992 -5.466851,2.097448 -1.249227,0.819753 -2.282898,1.884185 -3.251053,3.011865 -1.092665,0.96435 -2.041786,2.11758 -2.773185,3.38527 -0.896328,1.62932 -1.788933,3.27606 -2.491419,5.01465 -0.49682,0.91205 -0.954333,1.84214 -1.387036,2.78578 0,0 -0.803649,0.36139 -0.803649,0.36139 v 0 c 0.648755,-0.92795 1.064068,-1.84496 1.561769,-2.85972 0.532884,-1.75635 1.726653,-3.24629 2.381261,-4.97017 0.705165,-1.357 1.753174,-2.44969 2.895679,-3.45643 0.508596,-0.86914 0.04751,-0.19675 0.997319,-1.12785 1.039261,-1.018787 2.063244,-1.973195 3.422976,-2.585264 1.803542,-0.86765 3.755148,-1.384794 5.593005,-2.179624 0,0 -0.678816,0.522655 -0.678816,0.522655 z"
         id="path5221"
         style="fill:#241c1c;fill-opacity:1;stroke-width:0.26458332" />
      <path
         inkscape:connector-curvature="0"
         d="m 36.696012,100.78587 c 0.02185,0.26865 0.07875,0.53672 0.06559,0.80593 -0.01741,0.35596 -0.144669,0.70143 -0.156687,1.05761 -0.01101,0.32633 0.08602,0.64907 0.08809,0.97558 0.0024,0.38036 -0.08923,0.75856 -0.07473,1.13865 0.02728,0.71487 0.191194,1.4184 0.256014,2.13084 0.354356,3.26396 -0.179258,-1.12325 0.368424,1.91901 0.0572,0.31771 0.0172,0.64834 0.07867,0.96525 0.05434,0.28013 0.215461,0.53277 0.266412,0.81353 0.272373,1.50088 -0.285097,0.32402 0.404466,1.50717 0.06251,0.22329 0.144248,0.44206 0.187518,0.66986 0.04422,0.2328 0.0087,0.47925 0.07402,0.70701 0.196813,0.68591 0.806612,1.30837 1.05418,2.09918 0.407225,0.46486 0.457914,1.02776 0.751826,1.56257 0,0 -0.789654,0.43295 -0.789654,0.43295 v 0 c -0.154456,-0.58013 -0.151876,-1.18193 -0.586229,-1.63819 -0.413679,-1.4272 0.169674,0.28067 -0.56615,-1.00825 -0.375484,-0.65772 -0.592474,-1.73685 -0.773219,-2.4701 -0.287004,-0.76721 -0.432747,-1.54668 -0.652917,-2.33566 -0.03323,-0.11908 -0.479804,-1.70271 -0.49416,-1.80145 -0.05029,-0.3459 -0.02545,-0.69862 -0.03817,-1.04793 -0.414912,-3.14189 0.09675,1.18091 -0.09746,-2.22228 -0.01955,-0.34257 -0.167288,-0.67275 -0.166219,-1.01588 0.0011,-0.37397 0.170288,-0.73456 0.172842,-1.10852 0.0039,-0.57844 -0.344649,-1.13123 -0.178562,-1.72615 0,0 0.806103,-0.41073 0.806103,-0.41073 z"
         id="path5223"
         style="fill:#241c1c;fill-opacity:1;stroke-width:0.26458332" />
      <path
         inkscape:connector-curvature="0"
         d="m 43.897317,88.823002 c 1.993521,-0.257003 3.842959,-1.081674 5.771131,-1.601975 0.326721,-0.08928 0.645652,-0.21473 0.980159,-0.26784 0.212897,-0.0338 0.432113,0.03088 0.646618,0.0096 0.09002,-0.0089 1.760297,-0.327236 1.835084,-0.329628 0.192098,-0.0061 0.376243,0.07875 0.564364,0.118128 0.318516,-0.05347 0.637035,-0.106942 0.955554,-0.160414 1.290203,0.06361 2.462762,0.616588 3.702774,0.841169 0.336185,0.282942 0.804368,0.323934 1.160466,0.565509 0.164708,0.111734 0.249721,0.32226 0.421322,0.423093 0.234916,0.138036 0.558636,0.10359 0.769234,0.276468 0.175739,0.144262 0.166047,0.431165 0.308583,0.608304 0.144942,0.180128 0.357034,0.293838 0.535551,0.440759 0.189376,0.642768 1.027772,0.865359 1.36465,1.347155 0.119113,0.170352 0.08414,0.410472 0.168844,0.600297 0.141454,0.317021 0.468984,0.660093 0.689382,0.916885 0.488471,1.167413 1.412481,1.982541 2.277208,2.879471 0.717523,0.361026 0.357516,0.190542 1.079638,0.512259 0,0 -0.681797,0.454801 -0.681797,0.454801 v 0 c -0.689121,-0.372687 -0.335021,-0.188109 -1.062972,-0.552445 -0.826246,-0.680419 -0.143433,-0.03139 -0.75846,-0.881266 -0.507709,-0.70158 -1.344617,-1.079667 -1.556636,-2.003187 -0.389329,-0.660181 -0.246025,-0.303435 -0.41964,-1.074312 -0.39819,-0.737973 -1.481248,-0.955389 -1.706184,-1.828331 -1.017201,-0.907693 -1.996453,-1.757008 -3.325032,-2.188311 -1.099854,-0.646409 -2.394087,-0.531447 -3.595865,-0.878184 -1.650891,0.04049 -3.327302,0.21998 -4.930005,0.613667 -1.936014,0.532 -3.78792,1.302729 -5.776303,1.596332 0,0 0.582332,-0.437965 0.582332,-0.437965 z"
         id="path5225"
         style="fill:#241c1c;fill-opacity:1;stroke-width:0.26458332" />
      <path
         inkscape:connector-curvature="0"
         d="m 31.25679,88.765818 c 0.04195,0.258408 0.120973,0.513477 0.125859,0.775221 0.0064,0.342914 -0.09017,0.68181 -0.09224,1.024777 -0.0079,1.305824 0.07961,2.608823 0.02908,3.921056 0.07818,1.842759 -0.191502,2.42639 1.565262,3.263331 1.401128,0.170214 2.843565,0.342003 4.24696,0.121237 0.863322,-0.132125 1.475644,-1.071396 2.204989,-1.937231 0.65699,-1.038384 1.026957,-2.217661 1.535372,-3.33656 0.587468,-1.483183 0.912265,-3.017946 1.032502,-4.623483 -0.277011,-0.368223 0.07634,-0.905171 -0.129127,-1.282533 -0.236117,-0.433657 -1.5625,-0.917596 -2.008132,-1.005001 -0.250031,-0.0092 -0.502364,0.0076 -0.750096,-0.0275 -0.190162,-0.02691 -0.363416,-0.136228 -0.554332,-0.157115 -1.031486,-0.112847 -2.044612,0.161682 -3.067227,0.02056 -0.580768,0.08048 -1.225986,0.214979 -1.709536,0.581263 -0.05651,0.04281 0.223546,-0.104095 0.209851,-0.03454 -0.07074,0.359254 -0.411794,0.605917 -0.602308,0.918604 -0.81821,1.014431 -0.876408,2.261944 -1.129352,3.473006 0.0041,1.430951 -0.177613,2.844286 0.01151,4.279685 0.06154,1.183884 0.751589,2.140522 1.52065,2.985111 0.547616,0.304827 1.431523,0.818904 2.0569,0.913866 0.370449,0.05625 1.069774,-0.04454 1.456653,-0.08872 1.095976,-0.346969 1.117555,-0.673629 1.759712,-1.863645 0.153276,-0.421688 0.542912,-0.71786 0.710295,-1.130102 0.06145,-0.151342 0.0055,-0.331838 0.0577,-0.486611 0.206039,-0.610836 0.6013,-1.234437 0.876911,-1.821206 0.276778,-0.741794 0.237673,-1.607408 0.518578,-2.3436 0.509805,-1.336093 0.230124,-0.0027 0.428358,-1.20078 -0.02278,-0.679461 0.909174,-2.988373 1.915327,-2.015254 0.10234,0.08837 0.251984,0.141607 0.307025,0.265115 0.07086,0.158996 -1.59e-4,0.351811 0.04306,0.52043 0.04521,0.176408 0.18523,0.321651 0.218646,0.500671 0.08276,0.443375 0.123331,1.53552 0.171231,2.03554 -0.144976,0.969558 -0.184489,2.016117 -0.519713,2.948824 -0.414399,1.152998 -0.270352,0.241913 -0.36398,1.128955 -1.063209,1.007007 -2.442397,1.71155 -3.84811,2.108079 -1.697561,0.281204 -1.395415,-0.650486 -0.984753,-1.809039 0.465479,-1.07307 1.255316,-1.932728 1.780895,-2.97943 0.402775,-0.749276 0.796975,-1.560796 0.868135,-2.425372 0.0775,-0.941626 -0.212159,-0.01431 0.06546,-0.761833 -0.0091,-0.01191 -0.0182,-0.02381 -0.0273,-0.03572 0.247158,0.03597 0.548307,-0.05042 0.741474,0.107908 0.134204,0.109998 -0.135668,2.24118 -0.199398,2.510779 -0.301101,1.511681 -1.414666,2.294848 -2.504832,3.233135 -1.466918,1.302258 -0.326805,-0.159039 -0.106108,-0.829128 0.68653,-0.953942 0.606491,-2.442287 1.580692,-3.153624 0.289833,-0.005 0.594347,-0.10622 0.869495,-0.015 0.734854,0.243604 0.09685,1.982047 -0.04085,2.426301 -0.792662,0.817993 -1.925804,1.875244 -2.323131,0.175805 0.355047,-0.841592 0.246517,-0.422402 0.3562,-1.249241 0,0 0.642462,-0.304427 0.642462,-0.304427 v 0 c -0.184603,0.812022 -0.079,0.413136 -0.3154,1.19703 0.04691,0.136936 0.187193,0.589939 0.286266,0.723586 0.05057,0.06822 0.224721,0.0694 0.204523,0.151878 -0.04754,0.194144 -0.72213,0.731044 0.280395,-0.303035 0.240144,-0.456954 0.577667,-0.961705 0.582345,-1.500518 0.0029,-0.33137 -0.363609,-0.634722 -0.277331,-0.954675 0.06732,-0.249658 0.299641,-0.421497 0.449459,-0.632248 -1.052648,0.670208 -0.970571,2.056378 -1.503884,3.070315 -0.376881,0.978413 -0.758955,1.422442 -1.741424,1.873882 -0.134885,0.06198 0.544909,-0.519605 0.261048,-0.360794 1.1542,-0.838168 2.357028,-1.816528 2.718398,-3.263717 0.04461,-0.209894 0.119055,-0.41561 0.13384,-0.629685 0.01445,-0.209309 -0.1997,-1.659943 -0.148442,-1.757439 0.165521,-0.314844 1.126379,-1.090999 0.715854,-0.791374 0.147561,0.482515 0.03684,-0.03077 -0.10818,0.782566 -0.03659,0.205229 0.006,0.41992 -0.03436,0.624454 -0.121533,0.616741 -0.46025,1.185058 -0.685903,1.764366 -0.69079,1.013587 -1.28974,2.089975 -2.024001,3.076707 -0.161645,1.029658 -0.455187,1.906082 1.065405,1.589545 1.043326,-0.417978 1.74443,-0.436819 2.376382,-1.257982 0.722519,-1.237885 0.914622,-2.698322 1.067877,-4.113887 -0.09551,-1.106499 -0.150122,-2.325394 -0.607735,-3.313044 -0.293762,-0.221874 -0.252246,-0.08971 0.07026,-0.40962 -0.388763,-0.524484 -0.691888,2.44738 -0.702545,1.715055 -0.340657,1.219915 -0.890202,2.379465 -1.112586,3.6316 -0.326155,1.174784 -0.982118,2.278761 -1.504368,3.379999 -0.706962,1.461794 -1.609093,2.156481 -3.153556,2.695482 -1.140457,0.116602 -2.613305,-0.09219 -3.411651,-0.979447 -0.825505,-0.761979 -1.421112,-1.877177 -1.646243,-2.968319 0.154953,-1.438476 -0.28907,-2.911805 0.09582,-4.356539 0.103963,-1.242893 0.445524,-2.486215 1.153414,-3.510007 0.422267,-1.283028 1.977319,-2.06715 3.259815,-2.14086 1.504611,-0.01992 2.994184,-0.162878 4.465937,0.117581 0.404352,0.133969 0.8535,0.13798 1.235493,0.326472 0.671025,0.331112 0.848206,1.416108 1.00395,2.036312 -0.328313,1.587416 -0.467505,3.204073 -1.148635,4.705596 -0.346774,1.204511 0.05034,0.01294 -0.524529,1.204214 -0.899721,1.864466 0.506513,-0.86478 -0.276106,1.0473 -0.150526,0.367766 -0.490021,0.639609 -0.584176,1.039191 -0.167166,0.176485 -0.334333,0.35297 -0.501502,0.529455 -0.08041,0.151416 -0.128563,0.325017 -0.24122,0.454247 -0.753883,0.864788 -1.926037,1.384036 -2.948649,1.815809 -0.779788,0.04402 -2.823036,0.09067 -3.510619,-0.102944 -0.165801,-0.04669 -0.292774,-0.181557 -0.439163,-0.272333 -1.716694,-0.344371 -2.035024,-1.596548 -1.813912,-3.201614 0.09191,-0.979464 -0.0044,-1.911017 -0.04156,-2.89424 -0.0123,-0.325083 -0.118444,-0.646539 -0.0968,-0.971132 0.0249,-0.37324 0.198834,-0.725038 0.234735,-1.097381 0.02609,-0.270475 -0.03366,-0.542419 -0.05048,-0.813628 0,0 0.547058,-0.278738 0.547058,-0.278738 z"
         id="path5227"
         style="fill:#550000;fill-opacity:1;stroke-width:0.26458332" />
      <path
         inkscape:connector-curvature="0"
         d="m 2.562258,118.94965 c -0.3970519,1.8968 -0.5479988,3.83643 -0.6331483,5.77422 0.1195623,1.2866 -0.3666357,3.05256 -0.069525,4.28508 -0.027017,0.23758 -0.052419,0.70707 -0.6971747,-5.3e-4 -0.062217,-0.0683 0.6106648,-2.27082 0.6692541,-2.54394 0.4935822,-1.72165 1.4734957,-3.25227 2.3175668,-4.81837 0.2799609,-0.47209 0.4856941,-1.25469 1.305097,-0.97117 0.1432073,0.0495 -0.061583,0.30645 -0.026413,0.45385 0.3085328,1.29312 0.2750955,-0.68078 0.2080763,1.03797 0.015835,1.46147 0.1159386,2.92671 0.029096,4.38027 0.064135,0.08 0.054663,1.71985 -0.5071179,0.97835 -0.1102579,-0.14553 0.1785943,-0.32355 0.2212137,-0.50109 0.042859,-0.17853 0.02073,-0.36663 0.031096,-0.54994 0.3122752,-1.31319 0.7141821,-2.60646 1.6309739,-3.61551 0.4966351,-0.45225 1.5637364,-1.12793 1.9458641,-0.20121 0.7504522,1.81998 -0.7202972,-0.76561 0.3554968,1.01677 -0.2047957,1.76491 -0.066316,-0.2248 0.08723,1.36706 0.042746,0.44315 -0.036662,0.89004 -0.032652,1.33523 0,0 -0.7501683,0.38451 -0.7501683,0.38451 v 0 c 0.07272,-0.8983 -0.065817,-1.78547 -0.051483,-2.68712 -0.090106,-0.26759 -0.2161014,-1.16874 -0.4718844,-1.3483 -0.1091546,-0.0766 -0.3853037,0.084 -0.3971028,-0.0489 -0.013698,-0.15422 0.9966275,-0.77693 -0.064225,-0.0803 -0.8866077,1.01487 -1.2463979,2.25341 -1.5694967,3.54588 -0.032158,0.15169 -0.170861,0.92683 -0.2954904,1.09034 -0.8746508,1.1475 -0.8481131,0.43024 -0.8276433,-0.33233 -0.00775,-0.61645 -0.033488,-0.92939 0.048764,-1.54742 0.037208,-0.27958 0.1742623,-0.54983 0.1573639,-0.83137 -0.013158,-0.21922 -0.2378438,-0.39247 -0.2439975,-0.612 -0.048547,-1.73193 0.5256835,-0.0408 -0.025434,-1.36659 -0.010853,-0.37201 0.02756,-0.74744 -0.021974,-1.1163 -0.015531,-0.11567 -0.1640218,-0.22925 -0.1096288,-0.33251 0.1267751,-0.24065 0.3871421,-0.38225 0.5846678,-0.56925 0.2289823,-0.21679 -1.0254988,0.91972 -0.5041209,0.80045 -0.8582769,1.53032 -1.7459116,3.06939 -2.2334905,4.76809 -0.2596625,0.66282 -0.594742,1.37247 -0.7521918,2.0695 -0.037148,0.16445 0.047508,0.35894 -0.037757,0.50438 -0.1831816,0.31248 -0.484916,0.53821 -0.7298565,0.80505 -0.040877,0.0445 0.078397,-0.092 0.1175959,-0.13805 -0.022066,-1.42944 -0.1757043,-2.88387 0.074985,-4.29186 -0.1743573,-1.91267 0.390015,-3.79135 0.4701862,-5.7032 0,0 0.797446,-0.38987 0.797446,-0.38987 z"
         id="path5229"
         style="fill:#550000;fill-opacity:1;stroke-width:0.26458332" />
      <path
         inkscape:connector-curvature="0"
         d="m 32.270885,128.79515 c 0.10474,-1.09239 0.430906,-2.14413 0.649332,-3.21497 0.13647,-0.66904 0.137248,-1.2859 0.486069,-1.87465 0.276201,-0.0576 0.552651,-0.23147 0.828604,-0.17272 0.05383,0.0114 0.70789,2.58883 0.818787,2.87078 0.06248,0.56325 0.367485,1.2292 0.853358,1.57285 0.112861,0.0798 0.426966,-0.0345 0.402106,0.10146 -0.03131,0.17123 -0.349885,0.37008 -0.464341,0.23893 -0.119806,-0.13728 0.165015,-0.32491 0.24752,-0.48737 0.740802,-1.37702 0.153892,-3.07559 0.940792,-4.39809 0.817856,-1.41892 1.632059,0.73252 1.985259,1.03042 0.134509,0.11345 0.314814,0.15731 0.47222,0.23597 0.0498,0.0651 0.196662,0.12844 0.149392,0.19544 -0.08254,0.11701 -0.278918,0.23637 -0.399201,0.15867 -0.02714,-0.0175 0.351515,-1.08214 0.45021,-1.57954 0.03744,-0.18871 0.03206,-0.38345 0.0481,-0.57518 0.508987,-1.35243 1.219303,-1.47067 2.397757,-0.96387 -0.109503,-0.0448 1.284169,0.1841 1.137597,-0.0744 -0.06202,-0.10939 -0.373133,0.1708 -0.374536,0.0451 -0.0034,-0.30679 0.42132,-0.44641 0.621565,-0.67886 0.607224,-0.32625 1.800833,-1.21202 2.575351,-0.79718 0.12328,0.066 0.125544,0.25072 0.202962,0.36719 0.0895,0.13466 0.197569,0.25601 0.296354,0.38401 0,0 -0.53884,0.3181 -0.53884,0.3181 v 0 c -0.350668,-0.32395 -0.576352,-0.62761 -1.076933,-0.67702 -0.136348,-0.0135 -0.290113,0.0748 -0.410909,0.0101 -0.05978,-0.032 0.174681,-0.18998 0.109445,-0.17148 -0.146635,0.0416 -0.255595,0.16613 -0.383394,0.2492 -0.832874,0.71177 -1.538949,1.87487 -2.769717,1.43182 -0.190725,-0.0733 -0.529005,-0.21634 -0.742741,-0.25344 -0.09444,-0.0164 -0.324988,0.078 -0.28738,-0.0102 0.06361,-0.14911 0.285909,-0.37672 0.405966,-0.26779 0.231098,0.20968 -0.977487,0.42547 -0.518694,0.77929 0.05434,0.99586 -0.262755,2.9771 -1.708547,2.61363 -0.184327,-0.29576 -0.304115,-0.63899 -0.540909,-0.89468 -0.04955,-0.0535 -0.78935,-0.46537 -0.752795,-0.70522 0.03315,-0.21748 0.289425,-0.33506 0.398465,-0.52613 0.02614,-0.0458 -0.09343,0.049 -0.140147,0.0735 -0.716677,1.34358 -0.252278,3.00437 -0.879189,4.37926 -0.280935,0.69625 -0.214278,0.84671 -1.266899,1.0942 -0.110887,0.0261 -0.109853,-0.20363 -0.191567,-0.283 -0.146833,-0.1426 -0.374515,-0.20359 -0.486116,-0.37517 -0.229179,-0.35236 -0.02405,-0.9112 -0.498597,-1.15823 -0.09014,-0.23456 -0.829114,-2.75764 -0.783727,-2.85664 0.110302,-0.24061 0.37593,-0.3727 0.563896,-0.55905 -0.41343,0.63778 -0.353558,1.12241 -0.487683,1.85664 -0.199427,1.09169 -0.635669,2.1413 -0.737793,3.25487 0,0 -0.600448,0.29356 -0.600448,0.29356 z"
         id="path5231"
         style="fill:#550000;fill-opacity:1;stroke-width:0.26458332" />
      <path
         inkscape:connector-curvature="0"
         d="m 2.2529922,74.458758 c 1.1459175,-1.371505 2.827888,-2.131841 4.3354568,-2.787473 1.0806406,-0.995453 0.8462709,-2.202574 0.8386784,-3.530619 -0.1550493,-1.382082 0.9239144,-1.742418 1.810494,-2.493639 0.3553825,-0.668576 0.8304856,-1.378466 0.9380246,-2.148634 0.01322,-0.09469 -0.165559,-1.023215 -0.1800101,-1.101735 -0.2447705,-0.950217 -0.6203288,-2.339896 1.1450721,-1.547601 0.424829,0.347845 0.927409,0.659595 1.325446,1.034158 0.427458,0.402246 0.359212,0.795324 0.963251,0.906325 -0.16953,0.07159 -0.332008,0.266584 -0.508589,0.21477 -0.0857,-0.02513 0.140459,-0.260421 0.248214,-0.883491 0.103526,-0.598617 0.04614,-0.698762 -0.02406,-1.309016 0,0 0.65123,-0.338304 0.65123,-0.338304 v 0 c 0.268469,0.985081 0.192975,0.310145 0.0221,1.330532 -0.139812,0.834903 -0.143507,1.022289 -1.058674,1.425458 -0.693618,-0.456689 0.317921,0.257916 -0.479668,-0.543367 -0.148802,-0.149489 -0.350916,-0.235458 -0.51311,-0.370297 -0.459955,-0.382389 -0.656902,-0.916681 -1.29753,-1.028862 -0.44439,-0.337095 -0.369542,-0.129262 0.07395,-0.714787 0.08746,-0.115478 -0.09373,0.28245 -0.08178,0.426815 0.02635,0.318193 0.134485,0.747318 0.200889,1.04734 0.147652,1.162743 -0.0022,2.340819 -0.7140261,3.310617 -0.4477009,0.370581 -1.4161849,0.823426 -1.6736952,1.355506 -0.1587418,0.328001 0.3333935,0.807582 -0.1715256,1.079645 0.1012481,1.336794 0.1931805,2.643259 -0.8853723,3.63683 -0.4289719,0.257847 -0.843456,0.541494 -1.2869153,0.773539 -0.197716,0.103457 -0.4193686,0.152675 -0.629053,0.229012 -0.045296,-0.01103 -0.093486,-0.05247 -0.1358884,-0.0331 -0.9120434,0.4168 -1.5556174,1.050168 -2.2330047,1.769893 0,0 -0.6799032,0.290481 -0.6799032,0.290481 z"
         id="path5233"
         style="fill:#550000;fill-opacity:1;stroke-width:0.26458332" />
      <path
         inkscape:connector-curvature="0"
         d="m 47.808006,50.305824 c 0.723522,-0.443183 1.972869,-1.577621 2.912589,-1.0834 0.139478,0.07335 0.548026,0.613352 0.625266,0.710155 0.06742,1.11652 -0.132815,0.189314 0.471811,1.010716 0.08967,0.121822 0.0797,0.298185 0.166227,0.422259 0.265416,0.380582 0.654912,0.339683 1.057838,0.337034 1.177743,-0.601398 1.755799,-0.904023 2.883419,-0.137035 0.869751,0.854072 1.960861,0.550108 2.900095,-0.0052 -0.0728,0.04413 -0.274021,0.196824 -0.218392,0.132387 0.56525,-0.654751 1.191495,-1.331582 1.900817,-1.836986 0.805661,-0.486018 2.516872,-1.996308 2.951265,-0.500859 0.430591,0.558612 0.203523,1.128882 0.243533,1.755474 0.01132,0.17726 0.15467,0.339645 0.133149,0.515958 -0.03009,0.246481 -0.186917,0.460103 -0.280379,0.690155 0,0 -0.548304,0.267438 -0.548304,0.267438 v 0 c 0.124296,-0.954873 0.316929,-1.974574 -0.222551,-2.839868 -0.135594,-0.190061 -0.170942,-0.489529 -0.383511,-0.586086 -0.119761,-0.0544 -0.319982,0.123245 -0.394338,0.01474 -0.06366,-0.09289 0.353483,-0.263133 0.245115,-0.2325 -0.402407,0.113752 -0.608359,0.333714 -0.891526,0.585166 -1.209027,0.714867 -1.788528,2.111941 -3.202665,2.574549 -0.960866,0.532453 -2.012363,0.582496 -2.949996,-0.07798 -0.8445,-0.740617 -1.693566,-0.333206 -2.635022,0.02723 -1.496973,0.234405 -1.433719,-0.551026 -1.990368,-1.671595 -0.522404,-1.175737 -1.41967,-0.812726 -2.130131,-0.330216 0,0 -0.643941,0.258419 -0.643941,0.258419 z"
         id="path5235"
         style="fill:#550000;fill-opacity:1;stroke-width:0.26458332" />
      <path
         inkscape:connector-curvature="0"
         d="m 66.667937,107.7738 c 1.710212,-1.28657 3.687027,-2.2446 5.784959,-2.67769 0.224867,-0.0747 1.107265,-0.32708 1.3468,-0.53694 0.05715,-0.0501 -0.244874,0.0625 -0.227652,-0.0115 0.04461,-0.19171 0.248975,-0.30787 0.34231,-0.48117 0.168952,-0.31372 0.452411,-1.17253 0.558112,-1.47481 -0.285443,-1.03044 1.172001,-2.664294 1.692743,-1.02453 0.387249,0.49758 0.177652,0.25905 0.630362,0.71424 0,0 -0.644779,0.39067 -0.644779,0.39067 v 0 c -0.41942,-0.49664 -0.213805,-0.24852 -0.617085,-0.7442 -0.234985,-0.69856 -0.692375,-0.44101 0.09486,-1.11584 0.09651,-0.0827 -0.182668,0.18224 -0.24221,0.29455 -0.20432,0.38538 -0.230333,0.7653 -0.304485,1.18954 -0.411999,1.98117 -1.267302,2.70883 -3.234545,3.26186 -1.68288,0.30728 -3.250017,0.9941 -4.634426,1.99717 0,0 -0.544965,0.21869 -0.544965,0.21869 z"
         id="path5237"
         style="fill:#550000;fill-opacity:1;stroke-width:0.26458332" />
      <path
         inkscape:connector-curvature="0"
         d="m 67.375155,105.51969 c 0.255331,0.028 0.513813,0.0351 0.76599,0.084 0.704128,0.13631 1.404493,0.69317 2.126205,0.68016 0.03385,-5.2e-4 1.043226,-0.29633 0.452231,-0.12366 0.943981,-1.13463 2.420141,-1.45656 3.63042,-2.16996 -0.07771,-0.004 -0.24842,0.0639 -0.233122,-0.0124 0.03995,-0.19924 0.243602,-0.32748 0.33742,-0.50774 0.244983,-0.4707 0.565629,-1.58466 0.828154,-1.96642 0.154697,-0.22496 0.388901,-0.38328 0.583351,-0.57492 0.45648,-0.45901 1.04508,-0.8003 1.662615,-0.52115 0,0 -0.697677,0.4573 -0.697677,0.4573 v 0 c -0.227783,-0.56279 0.656971,-0.75163 -0.240012,-0.24303 -0.198882,0.18804 -0.439978,0.33969 -0.596646,0.56412 -0.104767,0.15008 -0.09041,0.35635 -0.163147,0.52431 -0.502843,1.1611 -0.943716,2.12799 -2.102702,2.78284 -0.289184,0.1554 -0.890751,0.50751 -1.206209,0.54107 -0.12514,0.0133 0.421852,-0.27071 0.30647,-0.22047 -0.609529,0.2654 -1.04661,0.75308 -1.575724,1.13586 -0.813257,0.52255 -1.30707,0.90364 -2.297192,0.61753 -0.23232,-0.0671 -0.412316,-0.26379 -0.643307,-0.33535 -0.481203,-0.14908 -1.020993,-0.0592 -1.477103,-0.31969 0,0 0.539985,-0.39232 0.539985,-0.39232 z"
         id="path5239"
         style="fill:#550000;fill-opacity:1;stroke-width:0.26458332" />
    </g>
  </g>
</svg>
